# Blender v2.79 (sub 0) OBJ File: ''
# www.blender.org
mtllib bill2.mtl
o Cube
v -1.401112 0.056257 -2.719770
v -1.401112 0.056257 4.796449
v -5.020670 0.056257 4.796449
v -5.020670 0.056257 -2.719771
v -1.401112 10.028043 -2.719770
v -1.401113 10.028043 4.796450
v -5.020671 10.028043 4.796449
v -5.020670 10.028043 -2.719770
v -5.023139 0.065620 -2.132958
v -5.023139 10.029434 -2.132958
v -5.023139 0.065620 -4.989460
v -5.023139 10.029434 -4.989460
v 2.140367 0.065620 -2.132958
v 2.140367 10.029434 -2.132958
v 2.140367 0.065620 -4.989460
v 2.140367 10.029434 -4.989460
v -5.304324 9.860074 5.043493
v -5.304324 10.046214 5.043493
v -5.304324 9.860074 -2.140063
v -5.304324 10.046214 -2.140063
v -1.034915 9.860074 5.043493
v -1.034915 10.046214 5.043493
v -1.034915 9.860074 -2.140063
v -1.034915 10.046214 -2.140063
v -5.307672 9.860312 -1.717148
v -5.307672 10.043073 -1.717148
v -5.307672 9.860312 -5.319901
v -5.307672 10.043073 -5.319901
v 2.425535 9.860312 -1.717148
v 2.425535 10.043073 -1.717148
v 2.425535 9.860312 -5.319901
v 2.425535 10.043073 -5.319901
v -4.757899 8.806477 1.000000
v -4.765766 8.940521 1.000000
v -4.757899 8.806477 -1.000000
v -4.765766 8.940521 -1.000000
v -1.587096 8.806477 1.000000
v -1.594963 8.940521 1.000000
v -1.587096 8.806477 -1.000000
v -1.594963 8.940521 -1.000000
v -5.233745 8.762049 4.993153
v -5.233745 8.942289 4.993153
v -5.233745 8.762049 -1.000000
v -5.233745 8.942289 -1.000000
v -1.178426 8.762049 4.993153
v -1.178426 8.942289 4.993153
v -1.178426 8.762049 -1.000000
v -1.178426 8.942289 -1.000000
v -5.228750 8.760457 -0.961894
v -5.228750 8.948187 -0.961894
v -5.228750 8.760457 -5.229247
v -5.228750 8.948187 -5.229247
v -1.181083 8.760457 -0.961894
v -1.181083 8.948187 -0.961894
v -1.181083 8.760457 -5.229247
v -1.181083 8.948187 -5.229247
v -1.602839 8.752857 -1.902782
v -1.602839 8.950819 -1.902782
v -1.602839 8.752857 -5.225931
v -1.602839 8.950819 -5.225931
v 2.336934 8.752857 -1.902782
v 2.336934 8.950819 -1.902782
v 2.336934 8.752857 -5.225931
v 2.336934 8.950819 -5.225931
v -5.154093 8.949007 4.884151
v -5.154093 9.855662 4.884151
v -5.154093 8.949007 -5.101184
v -5.154093 9.855662 -5.101184
v -1.294696 8.949007 4.884151
v -1.294696 9.855662 4.884151
v -1.294696 8.949007 -5.101184
v -1.294696 9.855662 -5.101184
v -5.148087 8.946405 -1.984584
v -5.148087 9.863428 -1.984584
v -5.148087 8.946405 -5.119703
v -5.148087 9.863428 -5.119703
v 2.207877 8.946405 -1.984584
v 2.207877 9.863428 -1.984584
v 2.207877 8.946405 -5.119703
v 2.207877 9.863428 -5.119703
v -5.151979 1.484306 4.913427
v -5.151979 8.786081 4.913427
v -5.151979 1.484306 -5.091848
v -5.151979 8.786081 -5.091848
v -1.298327 1.484306 4.913427
v -1.298327 8.786081 4.913427
v -1.298327 1.484306 -5.091848
v -1.298327 8.786081 -5.091848
v -1.580355 1.513540 -1.971750
v -1.580355 8.777583 -1.971750
v -1.580355 1.513540 -5.093561
v -1.580355 8.777583 -5.093561
v 2.206655 1.513540 -1.971750
v 2.206655 8.777583 -1.971750
v 2.206655 1.513540 -5.093561
v 2.206655 8.777583 -5.093561
v -5.233347 7.722622 4.990951
v -5.233347 7.915413 4.990951
v -5.233347 7.722622 -2.231957
v -5.233347 7.915413 -2.231957
v -1.174232 7.722622 4.990951
v -1.174232 7.915413 4.990951
v -1.174232 7.722622 -2.231957
v -1.174232 7.915413 -2.231957
v -5.228807 7.718405 -1.848856
v -5.228807 7.916805 -1.848856
v -5.228807 7.718405 -5.228089
v -5.228807 7.916805 -5.228089
v 2.334352 7.718405 -1.848856
v 2.334352 7.916805 -1.848856
v 2.334352 7.718405 -5.228089
v 2.334352 7.916805 -5.228089
v -5.225337 6.696721 4.997550
v -5.225337 6.904248 4.997550
v -5.225337 6.696721 -5.215167
v -5.225337 6.904248 -5.215167
v -1.183187 6.696721 4.997550
v -1.183187 6.904248 4.997550
v -1.183187 6.696721 -5.215167
v -1.183187 6.904248 -5.215167
v -1.390629 6.686722 -1.861547
v -1.390629 6.903521 -1.861547
v -1.390629 6.686722 -5.212677
v -1.390629 6.903521 -5.212677
v 2.376478 6.686722 -1.861547
v 2.376478 6.903521 -1.861547
v 2.376478 6.686722 -5.212677
v 2.376478 6.903521 -5.212677
v -5.220003 5.647882 4.987725
v -5.220003 5.855560 4.987725
v -5.220003 5.647882 -5.255905
v -5.220003 5.855560 -5.255905
v -1.161849 5.647882 4.987725
v -1.161849 5.855560 4.987725
v -1.161849 5.647882 -5.255905
v -1.161849 5.855560 -5.255905
v -1.268059 5.645535 -1.852777
v -1.268059 5.857461 -1.852777
v -1.268059 5.645535 -5.258556
v -1.268059 5.857461 -5.258556
v 2.399678 5.645535 -1.852777
v 2.399678 5.857461 -1.852777
v 2.399678 5.645535 -5.258556
v 2.399678 5.857461 -5.258556
v -5.226115 4.568591 -1.846194
v -5.226115 4.774667 -1.846194
v -5.226115 4.568591 -5.261274
v -5.226115 4.774667 -5.261274
v 2.407224 4.568591 -1.846194
v 2.407224 4.774667 -1.846194
v 2.407224 4.568591 -5.261274
v 2.407224 4.774667 -5.261274
v -5.226116 4.567290 4.988933
v -5.226116 4.768803 4.988933
v -5.226116 4.567290 -5.263309
v -5.226116 4.768803 -5.263309
v -1.190833 4.567290 4.988933
v -1.190833 4.768803 4.988933
v -1.190833 4.567290 -5.263309
v -1.190833 4.768803 -5.263309
v -5.220139 3.513122 -1.864679
v -5.220139 3.715041 -1.864679
v -5.220139 3.513122 -5.229134
v -5.220139 3.715041 -5.229134
v 2.401605 3.513122 -1.864679
v 2.401605 3.715041 -1.864679
v 2.401605 3.513122 -5.229134
v 2.401605 3.715041 -5.229134
v -5.217343 3.512244 4.984169
v -5.217343 3.720520 4.984169
v -5.217343 3.512244 -5.232784
v -5.217343 3.720520 -5.232784
v -1.186209 3.512244 4.984169
v -1.186209 3.720520 4.984169
v -1.186209 3.512244 -5.232784
v -1.186209 3.720520 -5.232784
v -5.226207 2.498268 -1.868466
v -5.226207 2.719029 -1.868466
v -5.226207 2.498268 -5.254192
v -5.226207 2.719029 -5.254192
v 2.403201 2.498268 -1.868466
v 2.403201 2.719029 -1.868466
v 2.403201 2.498268 -5.254192
v 2.403201 2.719029 -5.254192
v -5.217577 2.510667 4.983897
v -5.217577 2.719234 4.983897
v -5.217577 2.510667 -5.155712
v -5.217577 2.719234 -5.155712
v -1.172832 2.510667 4.983897
v -1.172832 2.719234 4.983897
v -1.172832 2.510667 -5.155712
v -1.172832 2.719234 -5.155712
v -5.326472 1.465008 4.982473
v -5.214883 1.694006 4.982473
v -5.326472 1.465008 -5.248767
v -5.214883 1.694006 -5.248767
v -1.106942 1.465008 4.982473
v -0.995353 1.694006 4.982473
v -1.106942 1.465008 -5.248767
v -0.995353 1.694006 -5.248767
v -1.378694 1.477373 -1.844034
v -1.378694 1.692430 -1.844034
v -1.378694 1.477373 -5.251485
v -1.378694 1.692430 -5.251485
v 2.378625 1.477373 -1.844034
v 2.378625 1.692430 -1.844034
v 2.378625 1.477373 -5.251485
v 2.378625 1.692430 -5.251485
v -4.509494 9.096893 -2.568470
v -4.509494 11.096893 -2.568470
v -4.509494 9.096893 -4.568470
v -4.509494 11.096893 -4.568470
v -2.509494 9.096893 -2.568470
v -2.509494 11.096893 -2.568470
v -2.509494 9.096893 -4.568470
v -2.509494 11.096893 -4.568470
v -3.928647 9.367778 -2.530627
v -3.928647 10.706684 -2.530627
v -3.928647 9.367778 -4.445480
v -3.928647 10.706684 -4.445480
v -3.136933 9.367778 -2.530627
v -3.136933 10.706684 -2.530627
v -3.136933 9.367778 -4.445480
v -3.136933 10.706684 -4.445480
v -5.229461 1.541527 3.610826
v -5.229461 9.854587 3.610826
v -5.229461 1.541527 3.403055
v -5.229461 9.854587 3.403055
v -1.180105 1.541527 3.610826
v -1.180105 9.854587 3.610826
v -1.180105 1.541527 3.403055
v -1.180105 9.854587 3.403055
v -5.217209 1.605299 2.175963
v -5.217209 9.872439 2.175963
v -5.217209 1.605299 2.048959
v -5.217209 9.872439 2.048959
v -1.186671 1.605299 2.175963
v -1.186671 9.872439 2.175963
v -1.186671 1.605299 2.048959
v -1.186671 9.872439 2.048959
v -5.226903 1.509252 0.877340
v -5.226903 9.855365 0.877340
v -5.226903 1.509252 0.713579
v -5.226903 9.855365 0.713579
v -1.176279 1.509252 0.877340
v -1.176279 9.855365 0.877340
v -1.176279 1.509252 0.713579
v -1.176279 9.855365 0.713579
v -5.215354 1.645399 -0.455846
v -5.215354 9.841417 -0.455846
v -5.215354 1.645399 -0.641191
v -5.215354 9.841417 -0.641191
v -1.207112 1.645399 -0.455846
v -1.207112 9.841417 -0.455846
v -1.207112 1.645399 -0.641191
v -1.207112 9.841417 -0.641191
v -0.256485 1.538552 -1.870720
v -0.256485 9.850129 -1.870720
v -0.256485 1.538552 -5.213684
v -0.256485 9.850129 -5.213684
v -0.099298 1.538552 -1.870720
v -0.099298 9.850129 -1.870720
v -0.099298 1.538552 -5.213684
v -0.099298 9.850129 -5.213684
v 1.059748 1.617706 -1.862699
v 1.059748 9.861233 -1.862699
v 1.059748 1.617706 -5.195331
v 1.059748 9.861233 -5.195331
v 1.237341 1.617706 -1.862699
v 1.237341 9.861233 -1.862699
v 1.237341 1.617706 -5.195331
v 1.237341 9.861233 -5.195331
v -1.547341 1.520195 -3.208660
v -1.547341 9.864619 -3.208660
v -1.547341 1.520195 -5.208660
v -1.547341 9.864619 -5.208660
v -1.355554 1.520195 -3.208660
v -1.355554 9.864619 -3.208660
v -1.355554 1.520195 -5.208660
v -1.355554 9.864619 -5.208660
v -2.579223 1.565059 4.996238
v -2.579223 9.843977 4.996238
v -2.865638 1.565059 -5.224314
v -2.865638 9.843977 -5.224314
v -2.382373 1.565059 4.996238
v -2.382373 9.843977 4.996238
v -2.668787 1.565059 -5.224314
v -2.668787 9.843977 -5.224314
v -4.179485 1.537471 4.987147
v -4.179485 9.866094 4.987147
v -4.179485 1.537471 -5.212168
v -4.179485 9.866094 -5.212168
v -3.964719 1.537471 4.987147
v -3.964719 9.866094 4.987147
v -3.964719 1.537471 -5.212168
v -3.964719 9.866094 -5.212168
v -5.212931 1.524730 -1.845061
v -5.212931 9.857681 -1.845061
v -5.212931 1.524730 -2.048882
v -5.212931 9.857681 -2.048882
v -1.574773 1.524730 -1.845061
v -1.574773 9.857681 -1.845061
v -1.574773 1.524730 -2.048882
v -1.574773 9.857681 -2.048882
v -5.193635 1.490426 -3.268223
v -5.193635 9.966716 -3.268223
v -5.193635 1.490426 -3.460560
v -5.193635 9.966716 -3.460560
v -3.193635 1.490426 -3.268223
v -3.193635 9.966716 -3.268223
v -3.193635 1.490426 -3.460560
v -3.193635 9.966716 -3.460560
v 1.840300 1.534125 -3.415814
v 1.840300 9.954604 -3.415814
v 1.840300 1.534125 -3.635451
v 1.840300 9.954604 -3.635451
v 2.398078 1.534125 -3.415814
v 2.398078 9.954604 -3.415814
v 2.398078 1.534125 -3.635451
v 2.398078 9.954604 -3.635451
v -3.093174 0.070486 2.512458
v -3.093174 1.043066 2.512458
v -3.093174 0.070486 -0.850159
v -3.093174 1.043066 -0.850159
v -1.362227 0.070486 2.512458
v -1.362227 1.043066 2.512458
v -1.362227 0.070486 -0.850159
v -1.362227 1.043066 -0.850159
v -3.298355 0.071775 1.679923
v -3.298355 1.041787 1.679923
v -3.298355 0.071775 1.636719
v -3.298355 1.041787 1.636719
v -1.341965 0.071775 1.679923
v -1.341965 1.041787 1.679923
v -1.341965 0.071775 1.636719
v -1.341965 1.041787 1.636719
v -3.296037 0.075081 0.831846
v -3.296037 1.036553 0.831846
v -3.296037 0.075081 0.795935
v -3.296037 1.036553 0.795935
v -1.347075 0.075081 0.831846
v -1.347075 1.036553 0.831846
v -1.347075 0.075081 0.795935
v -1.347075 1.036553 0.795935
v -3.274274 0.079456 0.051003
v -3.274274 1.048924 0.051003
v -3.274274 0.079456 0.029536
v -3.274274 1.048924 0.029536
v -1.348428 0.079456 0.051003
v -1.348428 1.048924 0.051003
v -1.348428 0.079456 0.029536
v -1.348428 1.048924 0.029536
vn 0.0000 -1.0000 0.0000
vn 0.0000 1.0000 0.0000
vn 1.0000 0.0000 0.0000
vn -0.0000 0.0000 1.0000
vn -1.0000 -0.0000 -0.0000
vn 0.0000 0.0000 -1.0000
vn -0.9983 -0.0586 0.0000
vn 0.9983 0.0586 0.0000
vn -0.8989 0.4381 0.0000
vn 0.8990 -0.4381 0.0000
vn -0.9996 0.0000 0.0280
vn 0.9996 0.0000 -0.0280
usemtl Material
s off
f 1//1 2//1 3//1 4//1
f 5//2 8//2 7//2 6//2
f 1//3 5//3 6//3 2//3
f 2//4 6//4 7//4 3//4
f 3//5 7//5 8//5 4//5
f 5//6 1//6 4//6 8//6
f 9//5 10//5 12//5 11//5
f 11//6 12//6 16//6 15//6
f 15//3 16//3 14//3 13//3
f 13//4 14//4 10//4 9//4
f 11//1 15//1 13//1 9//1
f 16//2 12//2 10//2 14//2
f 17//5 18//5 20//5 19//5
f 19//6 20//6 24//6 23//6
f 23//3 24//3 22//3 21//3
f 21//4 22//4 18//4 17//4
f 19//1 23//1 21//1 17//1
f 24//2 20//2 18//2 22//2
f 25//5 26//5 28//5 27//5
f 27//6 28//6 32//6 31//6
f 31//3 32//3 30//3 29//3
f 29//4 30//4 26//4 25//4
f 27//1 31//1 29//1 25//1
f 32//2 28//2 26//2 30//2
f 83//1 87//1 85//1 81//1
f 88//2 84//2 82//2 86//2
f 209//5 210//5 212//5 211//5
f 211//6 212//6 216//6 215//6
f 215//3 216//3 214//3 213//3
f 213//4 214//4 210//4 209//4
f 211//1 215//1 213//1 209//1
f 216//2 212//2 210//2 214//2
usemtl Material.001
f 33//7 34//7 36//7 35//7
f 35//6 36//6 40//6 39//6
f 39//8 40//8 38//8 37//8
f 37//4 38//4 34//4 33//4
f 35//1 39//1 37//1 33//1
f 40//2 36//2 34//2 38//2
f 41//5 42//5 44//5 43//5
f 43//6 44//6 48//6 47//6
f 47//3 48//3 46//3 45//3
f 45//4 46//4 42//4 41//4
f 43//1 47//1 45//1 41//1
f 48//2 44//2 42//2 46//2
f 49//5 50//5 52//5 51//5
f 51//6 52//6 56//6 55//6
f 55//3 56//3 54//3 53//3
f 53//4 54//4 50//4 49//4
f 51//1 55//1 53//1 49//1
f 56//2 52//2 50//2 54//2
f 57//5 58//5 60//5 59//5
f 59//6 60//6 64//6 63//6
f 63//3 64//3 62//3 61//3
f 61//4 62//4 58//4 57//4
f 59//1 63//1 61//1 57//1
f 64//2 60//2 58//2 62//2
f 97//5 98//5 100//5 99//5
f 99//6 100//6 104//6 103//6
f 103//3 104//3 102//3 101//3
f 101//4 102//4 98//4 97//4
f 99//1 103//1 101//1 97//1
f 104//2 100//2 98//2 102//2
f 105//5 106//5 108//5 107//5
f 107//6 108//6 112//6 111//6
f 111//3 112//3 110//3 109//3
f 109//4 110//4 106//4 105//4
f 107//1 111//1 109//1 105//1
f 112//2 108//2 106//2 110//2
f 113//5 114//5 116//5 115//5
f 115//6 116//6 120//6 119//6
f 119//3 120//3 118//3 117//3
f 117//4 118//4 114//4 113//4
f 115//1 119//1 117//1 113//1
f 120//2 116//2 114//2 118//2
f 121//5 122//5 124//5 123//5
f 123//6 124//6 128//6 127//6
f 127//3 128//3 126//3 125//3
f 125//4 126//4 122//4 121//4
f 123//1 127//1 125//1 121//1
f 128//2 124//2 122//2 126//2
f 129//5 130//5 132//5 131//5
f 131//6 132//6 136//6 135//6
f 135//3 136//3 134//3 133//3
f 133//4 134//4 130//4 129//4
f 131//1 135//1 133//1 129//1
f 136//2 132//2 130//2 134//2
f 137//5 138//5 140//5 139//5
f 139//6 140//6 144//6 143//6
f 143//3 144//3 142//3 141//3
f 141//4 142//4 138//4 137//4
f 139//1 143//1 141//1 137//1
f 144//2 140//2 138//2 142//2
f 145//5 146//5 148//5 147//5
f 147//6 148//6 152//6 151//6
f 151//3 152//3 150//3 149//3
f 149//4 150//4 146//4 145//4
f 147//1 151//1 149//1 145//1
f 152//2 148//2 146//2 150//2
f 153//5 154//5 156//5 155//5
f 155//6 156//6 160//6 159//6
f 159//3 160//3 158//3 157//3
f 157//4 158//4 154//4 153//4
f 155//1 159//1 157//1 153//1
f 160//2 156//2 154//2 158//2
f 161//5 162//5 164//5 163//5
f 163//6 164//6 168//6 167//6
f 167//3 168//3 166//3 165//3
f 165//4 166//4 162//4 161//4
f 163//1 167//1 165//1 161//1
f 168//2 164//2 162//2 166//2
f 169//5 170//5 172//5 171//5
f 171//6 172//6 176//6 175//6
f 175//3 176//3 174//3 173//3
f 173//4 174//4 170//4 169//4
f 171//1 175//1 173//1 169//1
f 176//2 172//2 170//2 174//2
f 177//5 178//5 180//5 179//5
f 179//6 180//6 184//6 183//6
f 183//3 184//3 182//3 181//3
f 181//4 182//4 178//4 177//4
f 179//1 183//1 181//1 177//1
f 184//2 180//2 178//2 182//2
f 185//5 186//5 188//5 187//5
f 187//6 188//6 192//6 191//6
f 191//3 192//3 190//3 189//3
f 189//4 190//4 186//4 185//4
f 187//1 191//1 189//1 185//1
f 192//2 188//2 186//2 190//2
f 193//9 194//9 196//9 195//9
f 195//6 196//6 200//6 199//6
f 199//10 200//10 198//10 197//10
f 197//4 198//4 194//4 193//4
f 195//1 199//1 197//1 193//1
f 200//2 196//2 194//2 198//2
f 201//5 202//5 204//5 203//5
f 203//6 204//6 208//6 207//6
f 207//3 208//3 206//3 205//3
f 205//4 206//4 202//4 201//4
f 203//1 207//1 205//1 201//1
f 208//2 204//2 202//2 206//2
f 217//5 218//5 220//5 219//5
f 219//6 220//6 224//6 223//6
f 223//3 224//3 222//3 221//3
f 221//4 222//4 218//4 217//4
f 219//1 223//1 221//1 217//1
f 224//2 220//2 218//2 222//2
f 225//5 226//5 228//5 227//5
f 227//6 228//6 232//6 231//6
f 231//3 232//3 230//3 229//3
f 229//4 230//4 226//4 225//4
f 227//1 231//1 229//1 225//1
f 232//2 228//2 226//2 230//2
f 233//5 234//5 236//5 235//5
f 235//6 236//6 240//6 239//6
f 239//3 240//3 238//3 237//3
f 237//4 238//4 234//4 233//4
f 235//1 239//1 237//1 233//1
f 240//2 236//2 234//2 238//2
f 241//5 242//5 244//5 243//5
f 243//6 244//6 248//6 247//6
f 247//3 248//3 246//3 245//3
f 245//4 246//4 242//4 241//4
f 243//1 247//1 245//1 241//1
f 248//2 244//2 242//2 246//2
f 249//5 250//5 252//5 251//5
f 251//6 252//6 256//6 255//6
f 255//3 256//3 254//3 253//3
f 253//4 254//4 250//4 249//4
f 251//1 255//1 253//1 249//1
f 256//2 252//2 250//2 254//2
f 257//5 258//5 260//5 259//5
f 259//6 260//6 264//6 263//6
f 263//3 264//3 262//3 261//3
f 261//4 262//4 258//4 257//4
f 259//1 263//1 261//1 257//1
f 264//2 260//2 258//2 262//2
f 265//5 266//5 268//5 267//5
f 267//6 268//6 272//6 271//6
f 271//3 272//3 270//3 269//3
f 269//4 270//4 266//4 265//4
f 267//1 271//1 269//1 265//1
f 272//2 268//2 266//2 270//2
f 273//5 274//5 276//5 275//5
f 275//6 276//6 280//6 279//6
f 279//3 280//3 278//3 277//3
f 277//4 278//4 274//4 273//4
f 275//1 279//1 277//1 273//1
f 280//2 276//2 274//2 278//2
f 281//11 282//11 284//11 283//11
f 283//6 284//6 288//6 287//6
f 287//12 288//12 286//12 285//12
f 285//4 286//4 282//4 281//4
f 283//1 287//1 285//1 281//1
f 288//2 284//2 282//2 286//2
f 289//5 290//5 292//5 291//5
f 291//6 292//6 296//6 295//6
f 295//3 296//3 294//3 293//3
f 293//4 294//4 290//4 289//4
f 291//1 295//1 293//1 289//1
f 296//2 292//2 290//2 294//2
f 297//5 298//5 300//5 299//5
f 299//6 300//6 304//6 303//6
f 303//3 304//3 302//3 301//3
f 301//4 302//4 298//4 297//4
f 299//1 303//1 301//1 297//1
f 304//2 300//2 298//2 302//2
f 305//5 306//5 308//5 307//5
f 307//6 308//6 312//6 311//6
f 311//3 312//3 310//3 309//3
f 309//4 310//4 306//4 305//4
f 307//1 311//1 309//1 305//1
f 312//2 308//2 306//2 310//2
f 313//5 314//5 316//5 315//5
f 315//6 316//6 320//6 319//6
f 319//3 320//3 318//3 317//3
f 317//4 318//4 314//4 313//4
f 315//1 319//1 317//1 313//1
f 320//2 316//2 314//2 318//2
f 321//5 322//5 324//5 323//5
f 323//6 324//6 328//6 327//6
f 327//3 328//3 326//3 325//3
f 325//4 326//4 322//4 321//4
f 323//1 327//1 325//1 321//1
f 328//2 324//2 322//2 326//2
usemtl Material.002
f 65//5 66//5 68//5 67//5
f 67//6 68//6 72//6 71//6
f 71//3 72//3 70//3 69//3
f 69//4 70//4 66//4 65//4
f 67//1 71//1 69//1 65//1
f 72//2 68//2 66//2 70//2
f 75//6 76//6 80//6 79//6
f 79//3 80//3 78//3 77//3
f 77//4 78//4 74//4 73//4
f 81//5 82//5 84//5 83//5
f 83//6 84//6 88//6 87//6
f 87//3 88//3 86//3 85//3
f 85//4 86//4 82//4 81//4
f 89//5 90//5 92//5 91//5
f 91//6 92//6 96//6 95//6
f 95//3 96//3 94//3 93//3
f 93//4 94//4 90//4 89//4
f 91//1 95//1 93//1 89//1
f 96//2 92//2 90//2 94//2
usemtl Material.003
f 73//5 74//5 76//5 75//5
f 75//1 79//1 77//1 73//1
f 80//2 76//2 74//2 78//2
usemtl Material.004
f 329//5 330//5 332//5 331//5
f 331//6 332//6 336//6 335//6
f 335//3 336//3 334//3 333//3
f 333//4 334//4 330//4 329//4
f 331//1 335//1 333//1 329//1
f 336//2 332//2 330//2 334//2
f 337//5 338//5 340//5 339//5
f 339//6 340//6 344//6 343//6
f 343//3 344//3 342//3 341//3
f 341//4 342//4 338//4 337//4
f 339//1 343//1 341//1 337//1
f 344//2 340//2 338//2 342//2
f 345//5 346//5 348//5 347//5
f 347//6 348//6 352//6 351//6
f 351//3 352//3 350//3 349//3
f 349//4 350//4 346//4 345//4
f 347//1 351//1 349//1 345//1
f 352//2 348//2 346//2 350//2
