# Blender v2.79 (sub 0) OBJ File: 'bill4.blend'
# www.blender.org
mtllib bill4.mtl
o Cube
v 1.273904 -0.808376 -2.633810
v 1.273904 -0.808376 4.198548
v -3.515087 -0.808376 4.198547
v -3.515086 -0.808376 -2.633810
v 1.273905 22.316284 -2.633810
v 1.273903 22.316284 4.198548
v -3.515087 22.316284 4.198547
v -3.515086 22.316284 -2.633810
v -3.542963 19.913696 3.722711
v -3.542963 21.583534 3.722711
v -3.542963 19.913696 2.757203
v -3.542963 21.583534 2.757203
v 1.302998 19.913696 3.722711
v 1.302998 21.583534 3.722711
v 1.302998 19.913696 2.757203
v 1.302998 21.583534 2.757203
v -3.541435 19.944098 2.108590
v -3.541435 21.589167 2.108590
v -3.541435 19.944098 1.122180
v -3.541435 21.589167 1.122180
v 1.304936 19.944098 2.108590
v 1.304936 21.589167 2.108590
v 1.304936 19.944098 1.122180
v 1.304936 21.589167 1.122180
v -3.529391 19.920288 0.492849
v -3.529391 21.602192 0.492849
v -3.529391 19.920288 -0.497053
v -3.529391 21.602192 -0.497053
v 1.301069 19.920288 0.492849
v 1.301069 21.602192 0.492849
v 1.301069 19.920288 -0.497053
v 1.301069 21.602192 -0.497053
v -3.537678 19.927383 -1.133478
v -3.537678 21.595692 -1.133478
v -3.537678 19.927383 -2.107916
v -3.537678 21.595692 -2.107916
v 1.298031 19.927383 -1.133478
v 1.298031 21.595692 -1.133478
v 1.298031 19.927383 -2.107916
v 1.298031 21.595692 -2.107916
v -3.551852 17.482229 -1.107093
v -3.551852 19.141905 -1.107093
v -3.551852 17.482229 -2.108825
v -3.551852 19.141905 -2.108825
v 1.313639 17.482229 -1.107093
v 1.313639 19.141905 -1.107093
v 1.313639 17.482229 -2.108825
v 1.313639 19.141905 -2.108825
v -3.555295 17.501143 0.518210
v -3.555295 19.146442 0.518210
v -3.555295 17.501143 -0.487847
v -3.555295 19.146442 -0.487847
v 1.313134 17.501143 0.518210
v 1.313134 19.146442 0.518210
v 1.313134 17.501143 -0.487847
v 1.313134 19.146442 -0.487847
v -3.553435 17.493549 2.147933
v -3.553435 19.155190 2.147933
v -3.553435 17.493549 1.107772
v -3.553435 19.155190 1.107772
v 1.306874 17.493549 2.147933
v 1.306874 19.155190 2.147933
v 1.306874 17.493549 1.107772
v 1.306874 19.155190 1.107772
v -3.554392 17.491703 3.741387
v -3.554392 19.146149 3.741387
v -3.554392 17.491703 2.760878
v -3.554392 19.146149 2.760878
v 1.334111 17.491703 3.741387
v 1.334111 19.146149 3.741387
v 1.334111 17.491703 2.760878
v 1.334111 19.146149 2.760878
v -3.538382 14.902744 -1.140779
v -3.538382 16.611622 -1.140779
v -3.538382 14.902744 -2.110547
v -3.538382 16.611622 -2.110547
v 1.303180 14.902744 -1.140779
v 1.303180 16.611622 -1.140779
v 1.303180 14.902744 -2.110547
v 1.303180 16.611622 -2.110547
v -3.554229 14.919129 0.522711
v -3.554229 16.612215 0.522711
v -3.554229 14.919129 -0.489714
v -3.554229 16.612215 -0.489714
v 1.304922 14.919129 0.522711
v 1.304922 16.612215 0.522711
v 1.304922 14.919129 -0.489714
v 1.304922 16.612215 -0.489714
v -3.560200 14.933084 2.154817
v -3.560200 16.612434 2.154817
v -3.560200 14.933084 1.100520
v -3.560200 16.612434 1.100520
v 1.305933 14.933084 2.154817
v 1.305933 16.612434 2.154817
v 1.305933 14.933084 1.100520
v 1.305933 16.612434 1.100520
v -3.574309 14.947017 3.752001
v -3.574309 16.602953 3.752001
v -3.574309 14.947017 2.751832
v -3.574309 16.602953 2.751832
v 1.301123 14.947017 3.752001
v 1.301123 16.602953 3.752001
v 1.301123 14.947017 2.751832
v 1.301123 16.602953 2.751832
v -3.573529 12.399393 3.745788
v -3.573529 14.079850 3.745788
v -3.573529 12.399393 2.756854
v -3.573529 14.079850 2.756854
v 1.328802 12.399393 3.745788
v 1.328802 14.079850 3.745788
v 1.328802 12.399393 2.756854
v 1.328802 14.079850 2.756854
v -3.561672 12.399370 2.132872
v -3.561672 14.074313 2.132872
v -3.561672 12.399370 1.086549
v -3.561672 14.074313 1.086549
v 1.336591 12.399370 2.132872
v 1.336591 14.074313 2.132872
v 1.336591 12.399370 1.086549
v 1.336591 14.074313 1.086549
v -3.587167 12.407430 0.492954
v -3.587167 14.062007 0.492954
v -3.587167 12.407430 -0.511906
v -3.587167 14.062007 -0.511906
v 1.330656 12.407430 0.492954
v 1.330656 14.062007 0.492954
v 1.330656 12.407430 -0.511906
v 1.330656 14.062007 -0.511906
v -3.573064 12.368117 -1.136426
v -3.573064 14.069495 -1.136426
v -3.573064 12.368117 -2.129911
v -3.573064 14.069495 -2.129911
v 1.318892 12.368117 -1.136426
v 1.318892 14.069495 -1.136426
v 1.318892 12.368117 -2.129911
v 1.318892 14.069495 -2.129911
v -3.562220 9.900337 3.738781
v -3.562220 11.610220 3.738781
v -3.562220 9.900337 2.747703
v -3.562220 11.610220 2.747703
v 1.313956 9.900337 3.738781
v 1.313956 11.610220 3.738781
v 1.313956 9.900337 2.747703
v 1.313956 11.610220 2.747703
v -3.562874 9.891058 2.100500
v -3.562874 11.620861 2.100500
v -3.562874 9.891058 1.100591
v -3.562874 11.620861 1.100591
v 1.329434 9.891058 2.100500
v 1.329434 11.620861 2.100500
v 1.329434 9.891058 1.100591
v 1.329434 11.620861 1.100591
v -3.551351 9.897287 0.466691
v -3.551351 11.621875 0.466691
v -3.551351 9.897287 -0.535058
v -3.551351 11.621875 -0.535058
v 1.314614 9.897287 0.466691
v 1.314614 11.621875 0.466691
v 1.314614 9.897287 -0.535058
v 1.314614 11.621875 -0.535058
v -3.561175 9.901400 -1.184324
v -3.561175 11.622375 -1.184324
v -3.561175 9.901400 -2.190467
v -3.561175 11.622375 -2.190467
v 1.304450 9.901400 -1.184324
v 1.304450 11.622375 -1.184324
v 1.304450 9.901400 -2.190467
v 1.304450 11.622375 -2.190467
v -3.572733 7.375854 -1.189751
v -3.572733 9.041224 -1.189751
v -3.572733 7.375854 -2.176370
v -3.572733 9.041224 -2.176370
v 1.335058 7.375854 -1.189751
v 1.335058 9.041224 -1.189751
v 1.335058 7.375854 -2.176370
v 1.335058 9.041224 -2.176370
v -3.566257 4.866879 -1.203795
v -3.566257 6.535174 -1.203795
v -3.566257 4.866879 -2.180552
v -3.566257 6.535174 -2.180552
v 1.332919 4.866879 -1.203795
v 1.332919 6.535174 -1.203795
v 1.332919 4.866879 -2.180552
v 1.332919 6.535174 -2.180552
v -3.558864 2.366699 -1.216534
v -3.558864 4.033007 -1.216534
v -3.558864 2.366699 -2.172127
v -3.558864 4.033007 -2.172127
v 1.328935 2.387032 -1.216534
v 1.328935 4.053340 -1.216534
v 1.328935 2.387032 -2.172127
v 1.328935 4.053340 -2.172127
v -3.564186 7.380508 0.503078
v -3.564186 9.050069 0.503078
v -3.564186 7.380508 -0.469366
v -3.564186 9.050069 -0.469366
v 1.346977 7.380508 0.503078
v 1.346977 9.050069 0.503078
v 1.346977 7.380508 -0.469366
v 1.346977 9.050069 -0.469366
v -3.573677 7.387592 2.108193
v -3.573677 9.068310 2.108193
v -3.573677 7.387592 1.120650
v -3.573677 9.068310 1.120650
v 1.352905 7.387592 2.108193
v 1.352905 9.068310 2.108193
v 1.352905 7.387592 1.120650
v 1.352905 9.068310 1.120650
v -3.567206 4.891850 0.540304
v -3.567206 6.517168 0.540304
v -3.567206 4.891850 -0.443830
v -3.567206 6.517168 -0.443830
v 1.354197 4.891850 0.540304
v 1.354197 6.517168 0.540304
v 1.354197 4.891850 -0.443830
v 1.354197 6.517168 -0.443830
v -3.557516 2.420021 0.564915
v -3.557516 4.044385 0.564915
v -3.557516 2.420021 -0.447021
v -3.557516 4.044385 -0.447021
v 1.323623 2.420021 0.564915
v 1.323623 4.044385 0.564915
v 1.323623 2.420021 -0.447021
v 1.323623 4.044385 -0.447021
v -3.565266 4.902386 2.163109
v -3.565266 6.526540 2.163109
v -3.565266 4.902386 1.170640
v -3.565266 6.526540 1.170640
v 1.367102 4.902386 2.163109
v 1.367102 6.526540 2.163109
v 1.367102 4.902386 1.170640
v 1.367102 6.526540 1.170640
v -3.558816 7.390966 3.749948
v -3.558816 9.046671 3.749948
v -3.558816 7.390966 2.774949
v -3.558816 9.046671 2.774949
v 1.374910 7.390966 3.749948
v 1.374910 9.046671 3.749948
v 1.374910 7.390966 2.774949
v 1.374910 9.046671 2.774949
v -3.565507 4.905931 3.759823
v -3.565507 6.541224 3.759823
v -3.565507 4.905931 2.767956
v -3.565507 6.541224 2.767956
v 1.342039 4.905931 3.759823
v 1.342039 6.541224 3.759823
v 1.342039 4.905931 2.767956
v 1.342039 6.541224 2.767956
v -3.587732 2.427987 2.182832
v -3.587732 4.067566 2.182832
v -3.587732 2.427987 1.188321
v -3.587732 4.067566 1.188321
v 1.335697 2.427987 2.182832
v 1.335697 4.067566 2.182832
v 1.335697 2.427987 1.188321
v 1.335697 4.067566 1.188321
v -3.596141 2.454460 3.767109
v -3.596141 4.063503 3.767109
v -3.596141 2.454460 2.760121
v -3.596141 4.063503 2.760121
v 1.350757 2.450927 3.767109
v 1.350757 4.059970 3.767109
v 1.350757 2.450927 2.760121
v 1.350757 4.059970 2.760121
v -3.552016 -0.811531 1.965617
v -3.552016 0.653764 1.965617
v -3.552016 -0.811531 -0.326406
v -3.552016 0.653764 -0.326406
v 1.310362 -0.811531 1.965617
v 1.310362 0.653764 1.965617
v 1.310362 -0.811531 -0.326406
v 1.310362 0.653764 -0.326406
v -1.789228 21.705530 3.590408
v -1.789228 23.705530 3.590408
v -1.789228 21.705530 1.590408
v -1.789228 23.705530 1.590408
v 0.210772 21.705530 3.590408
v 0.210772 23.705530 3.590408
v 0.210772 21.705530 1.590408
v 0.210772 23.705530 1.590408
v -1.221453 21.068722 3.506357
v -1.221453 23.068722 3.506357
v -1.221453 21.068722 1.533548
v -1.221453 23.068722 1.533548
v -0.381517 21.068722 3.506357
v -0.381517 23.068722 3.506357
v -0.381517 21.068722 1.533548
v -0.381517 23.068722 1.533548
v -3.571851 -0.794469 0.833120
v -3.571851 0.652414 0.833120
v -3.571851 -0.794469 0.804252
v -3.571851 0.652414 0.804252
v 1.327808 -0.794469 0.833120
v 1.327808 0.652414 0.833120
v 1.327808 -0.794469 0.804252
v 1.327808 0.652414 0.804252
vn 0.0000 -1.0000 -0.0000
vn 0.0000 1.0000 0.0000
vn 1.0000 -0.0000 0.0000
vn -0.0000 -0.0000 1.0000
vn -1.0000 -0.0000 -0.0000
vn 0.0000 0.0000 -1.0000
vn 0.0042 -1.0000 0.0000
vn -0.0042 1.0000 0.0000
vn -0.0007 -1.0000 0.0000
vn 0.0007 1.0000 0.0000
usemtl Material
s off
f 1//1 2//1 3//1 4//1
f 5//2 8//2 7//2 6//2
f 1//3 5//3 6//3 2//3
f 2//4 6//4 7//4 3//4
f 3//5 7//5 8//5 4//5
f 5//6 1//6 4//6 8//6
f 273//5 274//5 276//5 275//5
f 275//6 276//6 280//6 279//6
f 279//3 280//3 278//3 277//3
f 277//4 278//4 274//4 273//4
f 275//1 279//1 277//1 273//1
f 280//2 276//2 274//2 278//2
usemtl Material.001
f 9//5 10//5 12//5 11//5
f 11//6 12//6 16//6 15//6
f 15//3 16//3 14//3 13//3
f 13//4 14//4 10//4 9//4
f 11//1 15//1 13//1 9//1
f 16//2 12//2 10//2 14//2
f 17//5 18//5 20//5 19//5
f 19//6 20//6 24//6 23//6
f 23//3 24//3 22//3 21//3
f 21//4 22//4 18//4 17//4
f 19//1 23//1 21//1 17//1
f 24//2 20//2 18//2 22//2
f 25//5 26//5 28//5 27//5
f 27//6 28//6 32//6 31//6
f 31//3 32//3 30//3 29//3
f 29//4 30//4 26//4 25//4
f 27//1 31//1 29//1 25//1
f 32//2 28//2 26//2 30//2
f 33//5 34//5 36//5 35//5
f 35//6 36//6 40//6 39//6
f 39//3 40//3 38//3 37//3
f 37//4 38//4 34//4 33//4
f 35//1 39//1 37//1 33//1
f 40//2 36//2 34//2 38//2
f 41//5 42//5 44//5 43//5
f 43//6 44//6 48//6 47//6
f 47//3 48//3 46//3 45//3
f 45//4 46//4 42//4 41//4
f 43//1 47//1 45//1 41//1
f 48//2 44//2 42//2 46//2
f 49//5 50//5 52//5 51//5
f 51//6 52//6 56//6 55//6
f 55//3 56//3 54//3 53//3
f 53//4 54//4 50//4 49//4
f 51//1 55//1 53//1 49//1
f 56//2 52//2 50//2 54//2
f 57//5 58//5 60//5 59//5
f 59//6 60//6 64//6 63//6
f 63//3 64//3 62//3 61//3
f 61//4 62//4 58//4 57//4
f 59//1 63//1 61//1 57//1
f 64//2 60//2 58//2 62//2
f 65//5 66//5 68//5 67//5
f 67//6 68//6 72//6 71//6
f 71//3 72//3 70//3 69//3
f 69//4 70//4 66//4 65//4
f 67//1 71//1 69//1 65//1
f 72//2 68//2 66//2 70//2
f 73//5 74//5 76//5 75//5
f 75//6 76//6 80//6 79//6
f 79//3 80//3 78//3 77//3
f 77//4 78//4 74//4 73//4
f 75//1 79//1 77//1 73//1
f 80//2 76//2 74//2 78//2
f 81//5 82//5 84//5 83//5
f 83//6 84//6 88//6 87//6
f 87//3 88//3 86//3 85//3
f 85//4 86//4 82//4 81//4
f 83//1 87//1 85//1 81//1
f 88//2 84//2 82//2 86//2
f 89//5 90//5 92//5 91//5
f 91//6 92//6 96//6 95//6
f 95//3 96//3 94//3 93//3
f 93//4 94//4 90//4 89//4
f 91//1 95//1 93//1 89//1
f 96//2 92//2 90//2 94//2
f 97//5 98//5 100//5 99//5
f 99//6 100//6 104//6 103//6
f 103//3 104//3 102//3 101//3
f 101//4 102//4 98//4 97//4
f 99//1 103//1 101//1 97//1
f 104//2 100//2 98//2 102//2
f 105//5 106//5 108//5 107//5
f 107//6 108//6 112//6 111//6
f 111//3 112//3 110//3 109//3
f 109//4 110//4 106//4 105//4
f 107//1 111//1 109//1 105//1
f 112//2 108//2 106//2 110//2
f 113//5 114//5 116//5 115//5
f 115//6 116//6 120//6 119//6
f 119//3 120//3 118//3 117//3
f 117//4 118//4 114//4 113//4
f 115//1 119//1 117//1 113//1
f 120//2 116//2 114//2 118//2
f 121//5 122//5 124//5 123//5
f 123//6 124//6 128//6 127//6
f 127//3 128//3 126//3 125//3
f 125//4 126//4 122//4 121//4
f 123//1 127//1 125//1 121//1
f 128//2 124//2 122//2 126//2
f 129//5 130//5 132//5 131//5
f 131//6 132//6 136//6 135//6
f 135//3 136//3 134//3 133//3
f 133//4 134//4 130//4 129//4
f 131//1 135//1 133//1 129//1
f 136//2 132//2 130//2 134//2
f 137//5 138//5 140//5 139//5
f 139//6 140//6 144//6 143//6
f 143//3 144//3 142//3 141//3
f 141//4 142//4 138//4 137//4
f 139//1 143//1 141//1 137//1
f 144//2 140//2 138//2 142//2
f 145//5 146//5 148//5 147//5
f 147//6 148//6 152//6 151//6
f 151//3 152//3 150//3 149//3
f 149//4 150//4 146//4 145//4
f 147//1 151//1 149//1 145//1
f 152//2 148//2 146//2 150//2
f 153//5 154//5 156//5 155//5
f 155//6 156//6 160//6 159//6
f 159//3 160//3 158//3 157//3
f 157//4 158//4 154//4 153//4
f 155//1 159//1 157//1 153//1
f 160//2 156//2 154//2 158//2
f 161//5 162//5 164//5 163//5
f 163//6 164//6 168//6 167//6
f 167//3 168//3 166//3 165//3
f 165//4 166//4 162//4 161//4
f 163//1 167//1 165//1 161//1
f 168//2 164//2 162//2 166//2
f 169//5 170//5 172//5 171//5
f 171//6 172//6 176//6 175//6
f 175//3 176//3 174//3 173//3
f 173//4 174//4 170//4 169//4
f 171//1 175//1 173//1 169//1
f 176//2 172//2 170//2 174//2
f 177//5 178//5 180//5 179//5
f 179//6 180//6 184//6 183//6
f 183//3 184//3 182//3 181//3
f 181//4 182//4 178//4 177//4
f 179//1 183//1 181//1 177//1
f 184//2 180//2 178//2 182//2
f 185//5 186//5 188//5 187//5
f 187//6 188//6 192//6 191//6
f 191//3 192//3 190//3 189//3
f 189//4 190//4 186//4 185//4
f 187//7 191//7 189//7 185//7
f 192//8 188//8 186//8 190//8
f 193//5 194//5 196//5 195//5
f 195//6 196//6 200//6 199//6
f 199//3 200//3 198//3 197//3
f 197//4 198//4 194//4 193//4
f 195//1 199//1 197//1 193//1
f 200//2 196//2 194//2 198//2
f 201//5 202//5 204//5 203//5
f 203//6 204//6 208//6 207//6
f 207//3 208//3 206//3 205//3
f 205//4 206//4 202//4 201//4
f 203//1 207//1 205//1 201//1
f 208//2 204//2 202//2 206//2
f 209//5 210//5 212//5 211//5
f 211//6 212//6 216//6 215//6
f 215//3 216//3 214//3 213//3
f 213//4 214//4 210//4 209//4
f 211//1 215//1 213//1 209//1
f 216//2 212//2 210//2 214//2
f 217//5 218//5 220//5 219//5
f 219//6 220//6 224//6 223//6
f 223//3 224//3 222//3 221//3
f 221//4 222//4 218//4 217//4
f 219//1 223//1 221//1 217//1
f 224//2 220//2 218//2 222//2
f 225//5 226//5 228//5 227//5
f 227//6 228//6 232//6 231//6
f 231//3 232//3 230//3 229//3
f 229//4 230//4 226//4 225//4
f 227//1 231//1 229//1 225//1
f 232//2 228//2 226//2 230//2
f 233//5 234//5 236//5 235//5
f 235//6 236//6 240//6 239//6
f 239//3 240//3 238//3 237//3
f 237//4 238//4 234//4 233//4
f 235//1 239//1 237//1 233//1
f 240//2 236//2 234//2 238//2
f 241//5 242//5 244//5 243//5
f 243//6 244//6 248//6 247//6
f 247//3 248//3 246//3 245//3
f 245//4 246//4 242//4 241//4
f 243//1 247//1 245//1 241//1
f 248//2 244//2 242//2 246//2
f 249//5 250//5 252//5 251//5
f 251//6 252//6 256//6 255//6
f 255//3 256//3 254//3 253//3
f 253//4 254//4 250//4 249//4
f 251//1 255//1 253//1 249//1
f 256//2 252//2 250//2 254//2
f 257//5 258//5 260//5 259//5
f 259//6 260//6 264//6 263//6
f 263//3 264//3 262//3 261//3
f 261//4 262//4 258//4 257//4
f 259//9 263//9 261//9 257//9
f 264//10 260//10 258//10 262//10
usemtl Material.002
f 265//5 266//5 268//5 267//5
f 267//6 268//6 272//6 271//6
f 271//3 272//3 270//3 269//3
f 269//4 270//4 266//4 265//4
f 267//1 271//1 269//1 265//1
f 272//2 268//2 266//2 270//2
f 281//5 282//5 284//5 283//5
f 283//6 284//6 288//6 287//6
f 287//3 288//3 286//3 285//3
f 285//4 286//4 282//4 281//4
f 283//1 287//1 285//1 281//1
f 288//2 284//2 282//2 286//2
f 289//5 290//5 292//5 291//5
f 291//6 292//6 296//6 295//6
f 295//3 296//3 294//3 293//3
f 293//4 294//4 290//4 289//4
f 291//1 295//1 293//1 289//1
f 296//2 292//2 290//2 294//2
