# Blender v2.93.5 OBJ File: ''
# www.blender.org
mtllib bill2 orange.mtl
o Cube.001
v -1.401112 0.056257 -2.719770
v -1.401112 0.056256 4.796449
v -5.020670 0.056256 4.796449
v -5.020670 0.056257 -2.719771
v -1.401112 10.028043 -2.719768
v -5.020670 10.028043 -2.719768
v -5.020671 10.028042 4.796451
v -1.401113 10.028042 4.796452
v -5.023139 0.065620 -2.132958
v -5.023139 10.029434 -2.132956
v -5.023139 10.029435 -4.989459
v -5.023139 0.065621 -4.989460
v 2.140367 10.029435 -4.989459
v 2.140367 0.065621 -4.989460
v 2.140367 10.029434 -2.132956
v 2.140367 0.065620 -2.132958
v -5.304324 9.860073 5.043494
v -5.304324 10.046213 5.043494
v -5.304324 10.046214 -2.140061
v -5.304324 9.860074 -2.140061
v -1.034915 10.046214 -2.140061
v -1.034915 9.860074 -2.140061
v -1.034915 10.046213 5.043494
v -1.034915 9.860073 5.043494
v -5.307672 9.860312 -1.717146
v -5.307672 10.043073 -1.717146
v -5.307672 10.043074 -5.319900
v -5.307672 9.860313 -5.319900
v 2.425535 10.043074 -5.319900
v 2.425535 9.860313 -5.319900
v 2.425535 10.043073 -1.717146
v 2.425535 9.860312 -1.717146
v -5.151979 1.484307 -5.091847
v -1.298327 1.484307 -5.091847
v -1.298327 1.484305 4.913427
v -5.151979 1.484305 4.913427
v -1.298327 8.786082 -5.091846
v -5.151979 8.786082 -5.091846
v -5.151979 8.786080 4.913428
v -1.298327 8.786080 4.913428
v -4.509494 9.096893 -2.568469
v -4.509494 11.096893 -2.568468
v -4.509494 11.096894 -4.568468
v -4.509494 9.096894 -4.568469
v -2.509494 11.096894 -4.568468
v -2.509494 9.096894 -4.568469
v -2.509494 11.096893 -2.568468
v -2.509494 9.096893 -2.568469
v -4.757899 8.806477 1.000001
v -4.765766 8.940521 1.000001
v -4.765766 8.940521 -0.999999
v -4.757899 8.806477 -0.999999
v -1.594963 8.940521 -0.999999
v -1.587096 8.806477 -0.999999
v -1.594963 8.940521 1.000001
v -1.587096 8.806477 1.000001
v -5.233745 8.762048 4.993155
v -5.233745 8.942288 4.993155
v -5.233745 8.942289 -0.999999
v -5.233745 8.762049 -0.999999
v -1.178426 8.942289 -0.999999
v -1.178426 8.762049 -0.999999
v -1.178426 8.942288 4.993155
v -1.178426 8.762048 4.993155
v -5.228750 8.760457 -0.961893
v -5.228750 8.948187 -0.961893
v -5.228750 8.948188 -5.229246
v -5.228750 8.760458 -5.229246
v -1.181083 8.948188 -5.229246
v -1.181083 8.760458 -5.229246
v -1.181083 8.948187 -0.961893
v -1.181083 8.760457 -0.961893
v -1.602839 8.752857 -1.902781
v -1.602839 8.950819 -1.902781
v -1.602839 8.950820 -5.225930
v -1.602839 8.752858 -5.225930
v 2.336934 8.950820 -5.225930
v 2.336934 8.752858 -5.225930
v 2.336934 8.950819 -1.902781
v 2.336934 8.752857 -1.902781
v -5.233347 7.722621 4.990952
v -5.233347 7.915412 4.990952
v -5.233347 7.915413 -2.231956
v -5.233347 7.722622 -2.231956
v -1.174232 7.915413 -2.231956
v -1.174232 7.722622 -2.231956
v -1.174232 7.915412 4.990952
v -1.174232 7.722621 4.990952
v -5.228807 7.718405 -1.848855
v -5.228807 7.916805 -1.848855
v -5.228807 7.916806 -5.228087
v -5.228807 7.718406 -5.228087
v 2.334352 7.916806 -5.228087
v 2.334352 7.718406 -5.228087
v 2.334352 7.916805 -1.848855
v 2.334352 7.718405 -1.848855
v -5.225337 6.696720 4.997551
v -5.225337 6.904247 4.997551
v -5.225337 6.904249 -5.215166
v -5.225337 6.696722 -5.215166
v -1.183187 6.904249 -5.215166
v -1.183187 6.696722 -5.215166
v -1.183187 6.904247 4.997551
v -1.183187 6.696720 4.997551
v -1.390629 6.686722 -1.861546
v -1.390629 6.903522 -1.861546
v -1.390629 6.903522 -5.212676
v -1.390629 6.686723 -5.212676
v 2.376478 6.903522 -5.212676
v 2.376478 6.686723 -5.212676
v 2.376478 6.903522 -1.861546
v 2.376478 6.686722 -1.861546
v -5.220003 5.647881 4.987726
v -5.220003 5.855559 4.987726
v -5.220003 5.855561 -5.255904
v -5.220003 5.647883 -5.255904
v -1.161849 5.855561 -5.255904
v -1.161849 5.647883 -5.255904
v -1.161849 5.855559 4.987726
v -1.161849 5.647881 4.987726
v -1.268059 5.645535 -1.852776
v -1.268059 5.857461 -1.852776
v -1.268059 5.857462 -5.258555
v -1.268059 5.645536 -5.258555
v 2.399678 5.857462 -5.258555
v 2.399678 5.645536 -5.258555
v 2.399678 5.857461 -1.852776
v 2.399678 5.645535 -1.852776
v -5.226115 4.568592 -1.846193
v -5.226115 4.774667 -1.846193
v -5.226115 4.774668 -5.261273
v -5.226115 4.568592 -5.261273
v 2.407224 4.774668 -5.261273
v 2.407224 4.568592 -5.261273
v 2.407224 4.774667 -1.846193
v 2.407224 4.568592 -1.846193
v -5.226116 4.567289 4.988934
v -5.226116 4.768802 4.988934
v -5.226116 4.768804 -5.263308
v -5.226116 4.567291 -5.263308
v -1.190833 4.768804 -5.263308
v -1.190833 4.567291 -5.263308
v -1.190833 4.768802 4.988934
v -1.190833 4.567289 4.988934
v -5.220139 3.513122 -1.864678
v -5.220139 3.715041 -1.864678
v -5.220139 3.715042 -5.229134
v -5.220139 3.513123 -5.229134
v 2.401605 3.715042 -5.229134
v 2.401605 3.513123 -5.229134
v 2.401605 3.715041 -1.864678
v 2.401605 3.513122 -1.864678
v -5.217343 3.512243 4.984169
v -5.217343 3.720519 4.984169
v -5.217343 3.720521 -5.232783
v -5.217343 3.512245 -5.232783
v -1.186209 3.720521 -5.232783
v -1.186209 3.512245 -5.232783
v -1.186209 3.720519 4.984169
v -1.186209 3.512243 4.984169
v -5.226207 2.498268 -1.868466
v -5.226207 2.719029 -1.868466
v -5.226207 2.719030 -5.254191
v -5.226207 2.498269 -5.254191
v 2.403201 2.719030 -5.254191
v 2.403201 2.498269 -5.254191
v 2.403201 2.719029 -1.868466
v 2.403201 2.498268 -1.868466
v -5.217577 2.510666 4.983898
v -5.217577 2.719233 4.983898
v -5.217577 2.719235 -5.155712
v -5.217577 2.510668 -5.155712
v -1.172832 2.719235 -5.155712
v -1.172832 2.510668 -5.155712
v -1.172832 2.719233 4.983898
v -1.172832 2.510666 4.983898
v -5.326472 1.465007 4.982473
v -5.214883 1.694005 4.982473
v -5.214883 1.694007 -5.248766
v -5.326472 1.465009 -5.248766
v -0.995353 1.694007 -5.248766
v -1.106942 1.465009 -5.248766
v -0.995353 1.694005 4.982473
v -1.106942 1.465007 4.982473
v -1.378694 1.477373 -1.844034
v -1.378694 1.692430 -1.844034
v -1.378694 1.692431 -5.251484
v -1.378694 1.477374 -5.251484
v 2.378625 1.692431 -5.251484
v 2.378625 1.477374 -5.251484
v 2.378625 1.692430 -1.844034
v 2.378625 1.477373 -1.844034
v -3.928647 9.367778 -2.530626
v -3.928647 10.706684 -2.530625
v -3.928647 10.706685 -4.445478
v -3.928647 9.367779 -4.445478
v -3.136933 10.706685 -4.445478
v -3.136933 9.367779 -4.445478
v -3.136933 10.706684 -2.530625
v -3.136933 9.367778 -2.530626
v -5.229461 1.541526 3.610826
v -5.229461 9.854586 3.610828
v -5.229461 9.854586 3.403057
v -5.229461 1.541526 3.403055
v -1.180105 9.854586 3.403057
v -1.180105 1.541526 3.403055
v -1.180105 9.854586 3.610828
v -1.180105 1.541526 3.610826
v -5.217209 1.605299 2.175963
v -5.217209 9.872439 2.175965
v -5.217209 9.872439 2.048961
v -5.217209 1.605299 2.048959
v -1.186671 9.872439 2.048961
v -1.186671 1.605299 2.048959
v -1.186671 9.872439 2.175965
v -1.186671 1.605299 2.175963
v -5.226903 1.509252 0.877340
v -5.226903 9.855365 0.877342
v -5.226903 9.855365 0.713581
v -5.226903 1.509252 0.713579
v -1.176279 9.855365 0.713581
v -1.176279 1.509252 0.713579
v -1.176279 9.855365 0.877342
v -1.176279 1.509252 0.877340
v -5.215354 1.645399 -0.455846
v -5.215354 9.841417 -0.455844
v -5.215354 9.841417 -0.641189
v -5.215354 1.645399 -0.641191
v -1.207112 9.841417 -0.641189
v -1.207112 1.645399 -0.641191
v -1.207112 9.841417 -0.455844
v -1.207112 1.645399 -0.455846
v -0.256485 1.538552 -1.870720
v -0.256485 9.850129 -1.870718
v -0.256485 9.850130 -5.213683
v -0.256485 1.538553 -5.213684
v -0.099298 9.850130 -5.213683
v -0.099298 1.538553 -5.213684
v -0.099298 9.850129 -1.870718
v -0.099298 1.538552 -1.870720
v 1.059748 1.617706 -1.862699
v 1.059748 9.861233 -1.862697
v 1.059748 9.861234 -5.195330
v 1.059748 1.617707 -5.195331
v 1.237341 9.861234 -5.195330
v 1.237341 1.617707 -5.195331
v 1.237341 9.861233 -1.862697
v 1.237341 1.617706 -1.862699
v -1.547341 1.520195 -3.208660
v -1.547341 9.864620 -3.208658
v -1.547341 9.864620 -5.208659
v -1.547341 1.520196 -5.208660
v -1.355554 9.864620 -5.208659
v -1.355554 1.520196 -5.208660
v -1.355554 9.864620 -3.208658
v -1.355554 1.520195 -3.208660
v -2.579223 1.565058 4.996239
v -2.579223 9.843976 4.996240
v -2.865638 9.843978 -5.224313
v -2.865638 1.565060 -5.224314
v -2.668787 9.843978 -5.224313
v -2.668787 1.565060 -5.224314
v -2.382373 9.843976 4.996240
v -2.382373 1.565058 4.996239
v -4.179485 1.537470 4.987147
v -4.179485 9.866093 4.987148
v -4.179485 9.866095 -5.212167
v -4.179485 1.537472 -5.212168
v -3.964719 9.866095 -5.212167
v -3.964719 1.537472 -5.212168
v -3.964719 9.866093 4.987148
v -3.964719 1.537470 4.987147
v -5.212931 1.524730 -1.845061
v -5.212931 9.857681 -1.845059
v -5.212931 9.857681 -2.048880
v -5.212931 1.524730 -2.048882
v -1.574773 9.857681 -2.048880
v -1.574773 1.524730 -2.048882
v -1.574773 9.857681 -1.845059
v -1.574773 1.524730 -1.845061
v -5.193635 1.490426 -3.268223
v -5.193635 9.966717 -3.268221
v -5.193635 9.966717 -3.460558
v -5.193635 1.490427 -3.460560
v -3.193635 9.966717 -3.460558
v -3.193635 1.490427 -3.460560
v -3.193635 9.966717 -3.268221
v -3.193635 1.490426 -3.268223
v 1.840300 1.534126 -3.415814
v 1.840300 9.954605 -3.415812
v 1.840300 9.954605 -3.635449
v 1.840300 1.534126 -3.635451
v 2.398078 9.954605 -3.635449
v 2.398078 1.534126 -3.635451
v 2.398078 9.954605 -3.415812
v 2.398078 1.534126 -3.415814
v -3.093174 0.070486 2.512458
v -3.093174 1.043066 2.512458
v -3.093174 1.043066 -0.850159
v -3.093174 0.070486 -0.850159
v -1.362227 1.043066 -0.850159
v -1.362227 0.070486 -0.850159
v -1.362227 1.043066 2.512458
v -1.362227 0.070486 2.512458
v -5.154093 8.949006 4.884152
v -5.154093 9.855661 4.884152
v -5.154093 9.855663 -5.101182
v -5.154093 8.949008 -5.101182
v -1.294696 9.855663 -5.101182
v -1.294696 8.949008 -5.101182
v -1.294696 9.855661 4.884152
v -1.294696 8.949006 4.884152
v -5.148087 8.946406 -5.119701
v -5.148087 9.863429 -5.119701
v 2.207877 9.863429 -5.119701
v 2.207877 8.946406 -5.119701
v 2.207877 9.863428 -1.984582
v 2.207877 8.946405 -1.984583
v -5.148087 9.863428 -1.984582
v -5.148087 8.946405 -1.984583
v -1.580355 1.513540 -1.971750
v -1.580355 8.777583 -1.971749
v -1.580355 8.777584 -5.093560
v -1.580355 1.513541 -5.093561
v 2.206655 8.777584 -5.093560
v 2.206655 1.513541 -5.093561
v 2.206655 8.777583 -1.971749
v 2.206655 1.513540 -1.971750
v -3.298355 0.071775 1.679923
v -3.298355 1.041787 1.679923
v -3.298355 1.041787 1.636719
v -3.298355 0.071775 1.636719
v -1.341965 1.041787 1.636719
v -1.341965 0.071775 1.636719
v -1.341965 1.041787 1.679923
v -1.341965 0.071775 1.679923
v -3.296037 0.075081 0.831846
v -3.296037 1.036553 0.831846
v -3.296037 1.036553 0.795935
v -3.296037 0.075081 0.795935
v -1.347075 1.036553 0.795935
v -1.347075 0.075081 0.795935
v -1.347075 1.036553 0.831846
v -1.347075 0.075081 0.831846
v -3.274274 0.079456 0.051003
v -3.274274 1.048924 0.051003
v -3.274274 1.048924 0.029536
v -3.274274 0.079456 0.029536
v -1.348428 1.048924 0.029536
v -1.348428 0.079456 0.029536
v -1.348428 1.048924 0.051003
v -1.348428 0.079456 0.051003
vn 0.0000 -1.0000 -0.0000
vn -0.0000 1.0000 0.0000
vn 0.0000 0.0000 -1.0000
vn -0.9983 -0.0586 0.0000
vn 0.9983 0.0586 0.0000
vn 0.0000 0.0000 1.0000
vn -1.0000 0.0000 0.0000
vn 1.0000 0.0000 0.0000
vn -0.8989 0.4381 0.0000
vn 0.8989 -0.4381 -0.0000
vn -0.9996 -0.0000 0.0280
vn 0.9996 -0.0000 -0.0280
usemtl Material.001
s 1
f 1//1 2//1 3//1 4//1
f 5//2 6//2 7//2 8//2
f 5//3 1//3 4//3 6//3
f 12//1 14//1 16//1 9//1
f 13//2 11//2 10//2 15//2
f 20//3 19//3 21//3 22//3
f 20//1 22//1 24//1 17//1
f 28//1 30//1 32//1 25//1
f 33//1 34//1 35//1 36//1
f 37//2 38//2 39//2 40//2
f 44//1 46//1 48//1 41//1
usemtl Material.002
f 49//4 50//4 51//4 52//4
f 52//3 51//3 53//3 54//3
f 54//5 53//5 55//5 56//5
f 56//6 55//6 50//6 49//6
f 52//1 54//1 56//1 49//1
f 53//2 51//2 50//2 55//2
f 57//7 58//7 59//7 60//7
f 60//3 59//3 61//3 62//3
f 62//8 61//8 63//8 64//8
f 64//6 63//6 58//6 57//6
f 60//1 62//1 64//1 57//1
f 61//2 59//2 58//2 63//2
f 65//7 66//7 67//7 68//7
f 68//3 67//3 69//3 70//3
f 70//8 69//8 71//8 72//8
f 72//6 71//6 66//6 65//6
f 68//1 70//1 72//1 65//1
f 69//2 67//2 66//2 71//2
f 73//7 74//7 75//7 76//7
f 76//3 75//3 77//3 78//3
f 78//8 77//8 79//8 80//8
f 80//6 79//6 74//6 73//6
f 76//1 78//1 80//1 73//1
f 77//2 75//2 74//2 79//2
f 81//7 82//7 83//7 84//7
f 84//3 83//3 85//3 86//3
f 86//8 85//8 87//8 88//8
f 88//6 87//6 82//6 81//6
f 84//1 86//1 88//1 81//1
f 85//2 83//2 82//2 87//2
f 89//7 90//7 91//7 92//7
f 92//3 91//3 93//3 94//3
f 94//8 93//8 95//8 96//8
f 96//6 95//6 90//6 89//6
f 92//1 94//1 96//1 89//1
f 93//2 91//2 90//2 95//2
f 97//7 98//7 99//7 100//7
f 100//3 99//3 101//3 102//3
f 102//8 101//8 103//8 104//8
f 104//6 103//6 98//6 97//6
f 100//1 102//1 104//1 97//1
f 101//2 99//2 98//2 103//2
f 105//7 106//7 107//7 108//7
f 108//3 107//3 109//3 110//3
f 110//8 109//8 111//8 112//8
f 112//6 111//6 106//6 105//6
f 108//1 110//1 112//1 105//1
f 109//2 107//2 106//2 111//2
f 113//7 114//7 115//7 116//7
f 116//3 115//3 117//3 118//3
f 118//8 117//8 119//8 120//8
f 120//6 119//6 114//6 113//6
f 116//1 118//1 120//1 113//1
f 117//2 115//2 114//2 119//2
f 121//7 122//7 123//7 124//7
f 124//3 123//3 125//3 126//3
f 126//8 125//8 127//8 128//8
f 128//6 127//6 122//6 121//6
f 124//1 126//1 128//1 121//1
f 125//2 123//2 122//2 127//2
f 129//7 130//7 131//7 132//7
f 132//3 131//3 133//3 134//3
f 134//8 133//8 135//8 136//8
f 136//6 135//6 130//6 129//6
f 132//1 134//1 136//1 129//1
f 133//2 131//2 130//2 135//2
f 137//7 138//7 139//7 140//7
f 140//3 139//3 141//3 142//3
f 142//8 141//8 143//8 144//8
f 144//6 143//6 138//6 137//6
f 140//1 142//1 144//1 137//1
f 141//2 139//2 138//2 143//2
f 145//7 146//7 147//7 148//7
f 148//3 147//3 149//3 150//3
f 150//8 149//8 151//8 152//8
f 152//6 151//6 146//6 145//6
f 148//1 150//1 152//1 145//1
f 149//2 147//2 146//2 151//2
f 153//7 154//7 155//7 156//7
f 156//3 155//3 157//3 158//3
f 158//8 157//8 159//8 160//8
f 160//6 159//6 154//6 153//6
f 156//1 158//1 160//1 153//1
f 157//2 155//2 154//2 159//2
f 161//7 162//7 163//7 164//7
f 164//3 163//3 165//3 166//3
f 166//8 165//8 167//8 168//8
f 168//6 167//6 162//6 161//6
f 164//1 166//1 168//1 161//1
f 165//2 163//2 162//2 167//2
f 169//7 170//7 171//7 172//7
f 172//3 171//3 173//3 174//3
f 174//8 173//8 175//8 176//8
f 176//6 175//6 170//6 169//6
f 172//1 174//1 176//1 169//1
f 173//2 171//2 170//2 175//2
f 177//9 178//9 179//9 180//9
f 180//3 179//3 181//3 182//3
f 182//10 181//10 183//10 184//10
f 184//6 183//6 178//6 177//6
f 180//1 182//1 184//1 177//1
f 181//2 179//2 178//2 183//2
f 185//7 186//7 187//7 188//7
f 188//3 187//3 189//3 190//3
f 190//8 189//8 191//8 192//8
f 192//6 191//6 186//6 185//6
f 188//1 190//1 192//1 185//1
f 189//2 187//2 186//2 191//2
f 193//7 194//7 195//7 196//7
f 196//3 195//3 197//3 198//3
f 198//8 197//8 199//8 200//8
f 200//6 199//6 194//6 193//6
f 196//1 198//1 200//1 193//1
f 197//2 195//2 194//2 199//2
f 201//7 202//7 203//7 204//7
f 204//3 203//3 205//3 206//3
f 206//8 205//8 207//8 208//8
f 208//6 207//6 202//6 201//6
f 204//1 206//1 208//1 201//1
f 205//2 203//2 202//2 207//2
f 209//7 210//7 211//7 212//7
f 212//3 211//3 213//3 214//3
f 214//8 213//8 215//8 216//8
f 216//6 215//6 210//6 209//6
f 212//1 214//1 216//1 209//1
f 213//2 211//2 210//2 215//2
f 217//7 218//7 219//7 220//7
f 220//3 219//3 221//3 222//3
f 222//8 221//8 223//8 224//8
f 224//6 223//6 218//6 217//6
f 220//1 222//1 224//1 217//1
f 221//2 219//2 218//2 223//2
f 225//7 226//7 227//7 228//7
f 228//3 227//3 229//3 230//3
f 230//8 229//8 231//8 232//8
f 232//6 231//6 226//6 225//6
f 228//1 230//1 232//1 225//1
f 229//2 227//2 226//2 231//2
f 233//7 234//7 235//7 236//7
f 236//3 235//3 237//3 238//3
f 238//8 237//8 239//8 240//8
f 240//6 239//6 234//6 233//6
f 236//1 238//1 240//1 233//1
f 237//2 235//2 234//2 239//2
f 241//7 242//7 243//7 244//7
f 244//3 243//3 245//3 246//3
f 246//8 245//8 247//8 248//8
f 248//6 247//6 242//6 241//6
f 244//1 246//1 248//1 241//1
f 245//2 243//2 242//2 247//2
f 249//7 250//7 251//7 252//7
f 252//3 251//3 253//3 254//3
f 254//8 253//8 255//8 256//8
f 256//6 255//6 250//6 249//6
f 252//1 254//1 256//1 249//1
f 253//2 251//2 250//2 255//2
f 257//11 258//11 259//11 260//11
f 260//3 259//3 261//3 262//3
f 262//12 261//12 263//12 264//12
f 264//6 263//6 258//6 257//6
f 260//1 262//1 264//1 257//1
f 261//2 259//2 258//2 263//2
f 265//7 266//7 267//7 268//7
f 268//3 267//3 269//3 270//3
f 270//8 269//8 271//8 272//8
f 272//6 271//6 266//6 265//6
f 268//1 270//1 272//1 265//1
f 269//2 267//2 266//2 271//2
f 273//7 274//7 275//7 276//7
f 276//3 275//3 277//3 278//3
f 278//8 277//8 279//8 280//8
f 280//6 279//6 274//6 273//6
f 276//1 278//1 280//1 273//1
f 277//2 275//2 274//2 279//2
f 281//7 282//7 283//7 284//7
f 284//3 283//3 285//3 286//3
f 286//8 285//8 287//8 288//8
f 288//6 287//6 282//6 281//6
f 284//1 286//1 288//1 281//1
f 285//2 283//2 282//2 287//2
f 289//7 290//7 291//7 292//7
f 292//3 291//3 293//3 294//3
f 294//8 293//8 295//8 296//8
f 296//6 295//6 290//6 289//6
f 292//1 294//1 296//1 289//1
f 293//2 291//2 290//2 295//2
f 297//7 298//7 299//7 300//7
f 300//3 299//3 301//3 302//3
f 302//8 301//8 303//8 304//8
f 304//6 303//6 298//6 297//6
f 300//1 302//1 304//1 297//1
f 301//2 299//2 298//2 303//2
usemtl Material.003
f 305//7 306//7 307//7 308//7
f 308//3 307//3 309//3 310//3
f 310//8 309//8 311//8 312//8
f 312//6 311//6 306//6 305//6
f 308//1 310//1 312//1 305//1
f 309//2 307//2 306//2 311//2
f 313//3 314//3 315//3 316//3
f 316//8 315//8 317//8 318//8
f 318//6 317//6 319//6 320//6
f 36//7 39//7 38//7 33//7
f 33//3 38//3 37//3 34//3
f 34//8 37//8 40//8 35//8
f 35//6 40//6 39//6 36//6
f 321//7 322//7 323//7 324//7
f 324//3 323//3 325//3 326//3
f 326//8 325//8 327//8 328//8
f 328//6 327//6 322//6 321//6
f 324//1 326//1 328//1 321//1
f 325//2 323//2 322//2 327//2
usemtl Material.005
f 329//7 330//7 331//7 332//7
f 332//3 331//3 333//3 334//3
f 334//8 333//8 335//8 336//8
f 336//6 335//6 330//6 329//6
f 332//1 334//1 336//1 329//1
f 333//2 331//2 330//2 335//2
f 337//7 338//7 339//7 340//7
f 340//3 339//3 341//3 342//3
f 342//8 341//8 343//8 344//8
f 344//6 343//6 338//6 337//6
f 340//1 342//1 344//1 337//1
f 341//2 339//2 338//2 343//2
f 345//7 346//7 347//7 348//7
f 348//3 347//3 349//3 350//3
f 350//8 349//8 351//8 352//8
f 352//6 351//6 346//6 345//6
f 348//1 350//1 352//1 345//1
f 349//2 347//2 346//2 351//2
usemtl Material.004
f 320//7 319//7 314//7 313//7
f 313//1 316//1 318//1 320//1
f 315//2 314//2 319//2 317//2
usemtl マテリアル
f 1//8 5//8 8//8 2//8
f 2//6 8//6 7//6 3//6
f 3//7 7//7 6//7 4//7
f 9//7 10//7 11//7 12//7
f 12//3 11//3 13//3 14//3
f 14//8 13//8 15//8 16//8
f 16//6 15//6 10//6 9//6
f 17//7 18//7 19//7 20//7
f 22//8 21//8 23//8 24//8
f 24//6 23//6 18//6 17//6
f 21//2 19//2 18//2 23//2
f 25//7 26//7 27//7 28//7
f 28//3 27//3 29//3 30//3
f 30//8 29//8 31//8 32//8
f 32//6 31//6 26//6 25//6
f 29//2 27//2 26//2 31//2
f 41//7 42//7 43//7 44//7
f 44//3 43//3 45//3 46//3
f 46//8 45//8 47//8 48//8
f 48//6 47//6 42//6 41//6
f 45//2 43//2 42//2 47//2
