# Blender v2.79 (sub 0) OBJ File: 'house.blend'
# www.blender.org
mtllib house.mtl
o Cube
v 1.000000 3.649057 -7.015329
v 1.000000 3.649057 2.786884
v -4.132371 3.649057 2.786884
v -4.132370 3.649057 -7.015330
v 1.000000 12.720646 -7.015329
v 0.999999 12.720646 2.786884
v -4.132371 12.720646 2.786883
v -4.132371 12.720646 -7.015329
v -5.066505 10.857805 4.138998
v -5.066505 12.196346 4.138998
v -5.066505 14.369042 -2.317176
v -5.066505 15.707582 -2.317176
v 1.603594 10.857805 4.138998
v 1.603594 12.196346 4.138998
v 1.603594 14.369042 -2.317176
v 1.603594 15.707582 -2.317176
v -5.063498 14.353804 -2.257569
v -5.063498 15.709499 -2.257569
v -5.063498 10.858282 -8.486184
v -5.063498 12.213978 -8.486184
v 1.604200 14.353804 -2.257569
v 1.604200 15.709499 -2.257569
v 1.604200 10.858282 -8.486184
v 1.604200 12.213978 -8.486184
v -4.140466 8.402999 0.096241
v -4.140466 13.054224 0.217566
v -4.140466 8.607849 -5.326050
v -4.140466 13.259074 -5.204726
v 0.997813 8.842280 0.096241
v 0.997813 13.493505 0.217566
v 0.997813 9.047131 -5.326050
v 0.997813 13.698356 -5.204726
v -4.136447 10.842493 2.748584
v -4.136447 12.626900 2.748584
v -4.136447 12.624594 -0.018979
v -4.136447 14.409001 -0.018979
v 1.010204 10.842493 2.748584
v 1.010204 12.626900 2.748584
v 1.010204 12.624594 -0.018979
v 1.010204 14.409001 -0.018979
v -5.048135 6.009505 7.540000
v -5.048135 7.045575 7.540000
v -5.127478 8.879584 2.861628
v -5.127478 9.915654 2.861628
v 3.135601 6.009505 7.540000
v 3.135601 7.045575 7.540000
v 3.056258 8.879584 2.861628
v 3.056258 9.915654 2.861628
v -5.090244 8.892407 2.871892
v -5.090244 9.947262 2.871892
v -5.090244 6.251475 -0.939257
v -5.090244 7.306329 -0.939257
v 3.094754 8.892407 2.871892
v 3.094754 9.947262 2.871892
v 3.094754 6.251475 -0.939257
v 3.094754 7.306329 -0.939257
v -4.119001 9.052870 0.082163
v -4.119001 14.131371 0.082163
v -4.119001 9.447554 -4.326667
v -4.119001 14.526055 -4.326667
v 0.991186 9.052870 0.082163
v 0.991186 14.131371 0.082163
v 0.991186 9.447554 -4.326667
v 0.991186 14.526055 -4.326667
v -4.143494 6.590170 4.563562
v -4.143494 8.590170 4.563562
v -4.143494 7.019557 2.563562
v -4.143494 9.019557 2.563562
v 0.969019 6.590170 4.563562
v 0.969019 8.590170 4.563562
v 0.969019 7.019557 2.563562
v 0.969019 9.019557 2.563562
v -4.121616 3.638467 6.233655
v -4.121616 7.724185 6.233655
v -4.121616 3.638467 2.788774
v -4.121616 7.724185 2.788774
v 1.010541 3.638467 6.233655
v 1.010541 7.724185 6.233655
v 1.010541 3.638467 2.788774
v 1.010541 7.724185 2.788774
v -4.180619 9.698278 0.766176
v -4.180619 11.698278 0.766176
v -4.180619 9.698278 -0.708245
v -4.180619 11.698278 -0.708245
v 1.070493 9.698278 0.766176
v 1.070493 11.698278 0.766176
v 1.070493 9.698278 -0.708245
v 1.070493 11.698278 -0.708245
v -4.207376 9.708469 -3.417043
v -4.207376 11.708469 -3.417043
v -4.207376 9.708469 -4.938756
v -4.207376 11.708469 -4.938756
v 1.065089 9.708469 -3.417043
v 1.065089 11.708469 -3.417043
v 1.065089 9.708469 -4.938756
v 1.065089 11.708469 -4.938756
v -4.217312 9.697042 0.068305
v -4.217312 11.697042 0.068305
v -4.217312 9.697042 -0.007690
v -4.217312 11.697042 -0.007690
v 1.113485 9.697042 0.068305
v 1.113485 11.697042 0.068305
v 1.113485 9.697042 -0.007690
v 1.113485 11.697042 -0.007690
v -4.224140 9.706360 -4.178350
v -4.224140 11.706360 -4.178350
v -4.224140 9.706360 -4.264555
v -4.224140 11.706360 -4.264555
v 1.092636 9.706360 -4.178350
v 1.092636 11.706360 -4.178350
v 1.092636 9.706360 -4.264555
v 1.092636 11.706360 -4.264555
v -0.902179 3.679058 2.818717
v -0.902179 5.679058 2.818717
v -0.902179 3.679058 1.529053
v -0.902179 5.679058 1.529053
v 1.097821 3.679058 2.818717
v 1.097821 5.679058 2.818717
v 1.097821 3.679058 1.529053
v 1.097821 5.679058 1.529053
v 2.138778 3.621624 6.229748
v 2.138778 7.407224 6.229748
v 2.138778 3.621624 5.544144
v 2.138778 7.407224 5.544144
v 2.903318 3.621624 6.229748
v 2.903318 7.407224 6.229748
v 2.903318 3.621624 5.544144
v 2.903318 7.407224 5.544144
v 2.018514 3.547909 0.815100
v 2.018514 7.614423 0.815100
v 2.018514 3.547909 0.122629
v 2.018514 7.614423 0.122629
v 2.941326 3.547909 0.815100
v 2.941326 7.614423 0.815100
v 2.941326 3.547909 0.122629
v 2.941326 7.614423 0.122629
v 1.028011 7.151487 6.478791
v 1.028011 7.467483 6.478791
v 1.028011 7.166526 -0.626230
v 1.028011 7.482521 -0.626230
v 2.923858 7.151487 6.478791
v 2.923858 7.467483 6.478791
v 2.923858 7.166526 -0.626230
v 2.923858 7.482521 -0.626230
v 0.916733 7.190893 3.930718
v 0.916733 9.190893 3.930718
v 0.916733 7.190893 1.930718
v 0.916733 9.190893 1.930718
v 2.934844 7.190893 3.930718
v 2.934844 9.190893 3.930718
v 2.934844 7.190893 1.930718
v 2.934844 9.190893 1.930718
v 0.899466 7.155976 2.243748
v 0.899466 8.567544 2.243748
v 0.899466 7.155976 0.917636
v 0.899466 8.567544 0.917636
v 2.927220 7.155976 2.257574
v 2.927220 8.567544 2.257574
v 2.927220 7.155976 0.931462
v 2.927220 8.567544 0.931462
v 0.945857 7.201473 5.220101
v 0.945857 8.285242 5.220101
v 0.945857 7.201473 3.443847
v 0.945857 8.285242 3.443847
v 2.938009 7.201473 5.220101
v 2.938009 8.285242 5.220101
v 2.938009 7.201473 3.443847
v 2.938009 8.285242 3.443847
v -0.831191 4.682213 2.750853
v -0.831191 4.811944 2.750853
v -0.831191 4.682213 2.638247
v -0.831191 4.811944 2.638247
v 1.168809 4.682213 2.750853
v 1.168809 4.811944 2.750853
v 1.168809 4.682213 2.638247
v 1.168809 4.811944 2.638247
v -0.825120 4.290446 4.574420
v -0.825120 5.704343 4.574420
v -0.825120 4.290446 3.893658
v -0.825120 5.704343 3.893658
v 1.074537 4.290446 4.574420
v 1.074537 5.704343 4.574420
v 1.074537 4.290446 3.893658
v 1.074537 5.704343 3.893658
v -0.315989 4.325001 4.267111
v -0.315989 5.701454 4.267111
v -0.315989 4.325001 4.231356
v -0.315989 5.701454 4.231356
v 1.086749 4.325001 4.267111
v 1.086749 5.701454 4.267111
v 1.086749 4.325001 4.231356
v 1.086749 5.701454 4.231356
v -7.935590 3.436722 9.841686
v -7.935590 3.655660 9.841686
v -7.935590 3.436722 -10.473557
v -7.935590 3.655660 -10.473557
v 5.930143 3.436722 9.841686
v 5.930143 3.655660 9.841686
v 5.930143 3.436722 -10.473557
v 5.930143 3.655660 -10.473557
v 5.364876 3.416891 0.366540
v 5.364876 5.617705 0.366540
v 5.364876 3.416891 -10.507632
v 5.364876 5.617705 -10.507632
v 6.041429 3.416891 0.366540
v 6.041429 5.617705 0.366540
v 6.041429 3.416891 -10.507632
v 6.041429 5.617705 -10.507632
v 5.247232 3.438340 9.883939
v 5.247232 5.640609 9.883939
v 5.247232 3.438340 4.326453
v 5.247232 5.640609 4.326453
v 5.954122 3.438340 9.883939
v 5.954122 5.640609 9.883939
v 5.954122 3.438340 4.326453
v 5.954122 5.640609 4.326453
v -7.950333 3.377539 -9.984318
v -7.950333 5.614394 -9.984318
v -7.950333 3.377539 -10.513798
v -7.950333 5.614394 -10.513798
v 5.928523 3.377539 -9.984318
v 5.928523 5.614394 -9.984318
v 5.928523 3.377539 -10.513798
v 5.928523 5.614394 -10.513798
v -7.948803 3.384572 9.884375
v -7.948803 5.641099 9.884375
v -7.948803 3.384572 9.335958
v -7.948803 5.641099 9.335958
v 5.933333 3.384572 9.884375
v 5.933333 5.641099 9.884375
v 5.933333 3.384572 9.335958
v 5.933333 5.641099 9.335958
v -7.953097 3.451652 9.882557
v -7.953097 5.635062 9.882557
v -7.953097 3.451652 -10.530525
v -7.953097 5.635062 -10.530525
v -7.322869 3.451652 9.882557
v -7.322869 5.635062 9.882557
v -7.322869 3.451652 -10.530525
v -7.322869 5.635062 -10.530525
v -0.989478 4.472456 -3.580309
v -0.989478 6.472456 -3.580309
v -0.989478 4.472456 -5.131202
v -0.989478 6.472456 -5.131202
v 1.010522 4.472456 -3.580309
v 1.010522 6.472456 -3.580309
v 1.010522 4.472456 -5.131202
v 1.010522 6.472456 -5.131202
v -0.463750 4.472025 -4.348237
v -0.463750 6.472471 -4.348237
v -0.463750 4.472025 -4.404190
v -0.463750 6.472471 -4.404190
v 1.047002 4.472025 -4.348237
v 1.047002 6.472471 -4.348237
v 1.047002 4.472025 -4.404190
v 1.047002 6.472471 -4.404190
v 1.254926 3.514909 2.952003
v 1.254926 3.689537 2.952003
v 1.254926 3.514909 1.508542
v 1.254926 3.689537 1.508542
v 5.924029 3.514909 2.952003
v 5.924029 3.689537 2.952003
v 5.924029 3.514909 1.508542
v 5.924029 3.689537 1.508542
vn 0.0000 -1.0000 0.0000
vn 0.0000 1.0000 0.0000
vn 1.0000 0.0000 0.0000
vn -0.0000 -0.0000 1.0000
vn -1.0000 0.0000 -0.0000
vn 0.0000 0.0000 -1.0000
vn -0.0022 0.0261 -0.9997
vn 0.0022 -0.0261 0.9997
vn 0.0851 -0.9957 -0.0376
vn -0.0851 0.9957 0.0376
vn 0.0000 -0.8408 -0.5414
vn 0.0000 0.8408 0.5414
vn 0.0000 -0.9960 -0.0892
vn 0.0000 0.9960 0.0892
vn 0.0000 -0.9777 -0.2099
vn 0.0000 0.9777 0.2099
vn 0.0000 -1.0000 -0.0021
vn 0.0000 1.0000 0.0021
vn 0.0068 0.0000 -1.0000
vn -0.0068 0.0000 1.0000
vn 0.0000 -0.8785 -0.4778
vn 0.0000 0.8785 0.4778
vn 0.0000 -0.8721 0.4894
vn 0.0000 0.8721 -0.4894
vn -0.9999 0.0000 0.0170
vn 0.9999 0.0000 -0.0170
vn 0.0000 -0.8524 -0.5229
vn 0.0000 0.8524 0.5229
vn 0.0000 -0.8219 0.5696
vn 0.0000 0.8219 -0.5696
usemtl Material
s off
f 1//1 2//1 3//1 4//1
f 5//2 8//2 7//2 6//2
f 1//3 5//3 6//3 2//3
f 2//4 6//4 7//4 3//4
f 3//5 7//5 8//5 4//5
f 5//6 1//6 4//6 8//6
f 25//5 26//5 28//5 27//5
f 27//7 28//7 32//7 31//7
f 31//3 32//3 30//3 29//3
f 29//8 30//8 26//8 25//8
f 27//9 31//9 29//9 25//9
f 32//10 28//10 26//10 30//10
f 33//5 34//5 36//5 35//5
f 35//6 36//6 40//6 39//6
f 39//3 40//3 38//3 37//3
f 37//4 38//4 34//4 33//4
f 35//11 39//11 37//11 33//11
f 40//12 36//12 34//12 38//12
f 57//5 58//5 60//5 59//5
f 59//6 60//6 64//6 63//6
f 63//3 64//3 62//3 61//3
f 61//4 62//4 58//4 57//4
f 59//13 63//13 61//13 57//13
f 64//14 60//14 58//14 62//14
f 65//5 66//5 68//5 67//5
f 67//6 68//6 72//6 71//6
f 71//3 72//3 70//3 69//3
f 69//4 70//4 66//4 65//4
f 67//15 71//15 69//15 65//15
f 72//16 68//16 66//16 70//16
f 73//5 74//5 76//5 75//5
f 75//6 76//6 80//6 79//6
f 79//3 80//3 78//3 77//3
f 77//4 78//4 74//4 73//4
f 75//1 79//1 77//1 73//1
f 80//2 76//2 74//2 78//2
f 97//5 98//5 100//5 99//5
f 99//6 100//6 104//6 103//6
f 103//3 104//3 102//3 101//3
f 101//4 102//4 98//4 97//4
f 99//1 103//1 101//1 97//1
f 104//2 100//2 98//2 102//2
f 105//5 106//5 108//5 107//5
f 107//6 108//6 112//6 111//6
f 111//3 112//3 110//3 109//3
f 109//4 110//4 106//4 105//4
f 107//1 111//1 109//1 105//1
f 112//2 108//2 106//2 110//2
f 121//5 122//5 124//5 123//5
f 123//6 124//6 128//6 127//6
f 127//3 128//3 126//3 125//3
f 125//4 126//4 122//4 121//4
f 123//1 127//1 125//1 121//1
f 128//2 124//2 122//2 126//2
f 129//5 130//5 132//5 131//5
f 131//6 132//6 136//6 135//6
f 135//3 136//3 134//3 133//3
f 133//4 134//4 130//4 129//4
f 131//1 135//1 133//1 129//1
f 136//2 132//2 130//2 134//2
f 137//5 138//5 140//5 139//5
f 139//6 140//6 144//6 143//6
f 143//3 144//3 142//3 141//3
f 141//4 142//4 138//4 137//4
f 139//17 143//17 141//17 137//17
f 144//18 140//18 138//18 142//18
f 145//5 146//5 148//5 147//5
f 147//6 148//6 152//6 151//6
f 151//3 152//3 150//3 149//3
f 149//4 150//4 146//4 145//4
f 147//1 151//1 149//1 145//1
f 152//2 148//2 146//2 150//2
f 153//5 154//5 156//5 155//5
f 155//19 156//19 160//19 159//19
f 159//3 160//3 158//3 157//3
f 157//20 158//20 154//20 153//20
f 155//1 159//1 157//1 153//1
f 160//2 156//2 154//2 158//2
f 161//5 162//5 164//5 163//5
f 163//6 164//6 168//6 167//6
f 167//3 168//3 166//3 165//3
f 165//4 166//4 162//4 161//4
f 163//1 167//1 165//1 161//1
f 168//2 164//2 162//2 166//2
f 185//5 186//5 188//5 187//5
f 187//6 188//6 192//6 191//6
f 191//3 192//3 190//3 189//3
f 189//4 190//4 186//4 185//4
f 187//1 191//1 189//1 185//1
f 192//2 188//2 186//2 190//2
f 249//5 250//5 252//5 251//5
f 251//6 252//6 256//6 255//6
f 255//3 256//3 254//3 253//3
f 253//4 254//4 250//4 249//4
f 251//1 255//1 253//1 249//1
f 256//2 252//2 250//2 254//2
usemtl Material.001
f 9//5 10//5 12//5 11//5
f 11//6 12//6 16//6 15//6
f 15//3 16//3 14//3 13//3
f 13//4 14//4 10//4 9//4
f 11//21 15//21 13//21 9//21
f 16//22 12//22 10//22 14//22
f 17//5 18//5 20//5 19//5
f 19//6 20//6 24//6 23//6
f 23//3 24//3 22//3 21//3
f 21//4 22//4 18//4 17//4
f 19//23 23//23 21//23 17//23
f 24//24 20//24 18//24 22//24
f 41//25 42//25 44//25 43//25
f 43//6 44//6 48//6 47//6
f 47//26 48//26 46//26 45//26
f 45//4 46//4 42//4 41//4
f 43//27 47//27 45//27 41//27
f 48//28 44//28 42//28 46//28
f 49//5 50//5 52//5 51//5
f 51//6 52//6 56//6 55//6
f 55//3 56//3 54//3 53//3
f 53//4 54//4 50//4 49//4
f 51//29 55//29 53//29 49//29
f 56//30 52//30 50//30 54//30
usemtl Material.002
f 81//5 82//5 84//5 83//5
f 83//6 84//6 88//6 87//6
f 87//3 88//3 86//3 85//3
f 85//4 86//4 82//4 81//4
f 83//1 87//1 85//1 81//1
f 88//2 84//2 82//2 86//2
f 89//5 90//5 92//5 91//5
f 91//6 92//6 96//6 95//6
f 95//3 96//3 94//3 93//3
f 93//4 94//4 90//4 89//4
f 91//1 95//1 93//1 89//1
f 96//2 92//2 90//2 94//2
f 177//5 178//5 180//5 179//5
f 179//6 180//6 184//6 183//6
f 183//3 184//3 182//3 181//3
f 181//4 182//4 178//4 177//4
f 179//1 183//1 181//1 177//1
f 184//2 180//2 178//2 182//2
f 241//5 242//5 244//5 243//5
f 243//6 244//6 248//6 247//6
f 247//3 248//3 246//3 245//3
f 245//4 246//4 242//4 241//4
f 243//1 247//1 245//1 241//1
f 248//2 244//2 242//2 246//2
usemtl Material.003
f 113//5 114//5 116//5 115//5
f 115//6 116//6 120//6 119//6
f 119//3 120//3 118//3 117//3
f 117//4 118//4 114//4 113//4
f 115//1 119//1 117//1 113//1
f 120//2 116//2 114//2 118//2
usemtl Material.004
f 169//5 170//5 172//5 171//5
f 171//6 172//6 176//6 175//6
f 175//3 176//3 174//3 173//3
f 173//4 174//4 170//4 169//4
f 171//1 175//1 173//1 169//1
f 176//2 172//2 170//2 174//2
usemtl Material.005
f 193//5 194//5 196//5 195//5
f 195//6 196//6 200//6 199//6
f 199//3 200//3 198//3 197//3
f 197//4 198//4 194//4 193//4
f 195//1 199//1 197//1 193//1
f 200//2 196//2 194//2 198//2
usemtl Material.006
f 201//5 202//5 204//5 203//5
f 203//6 204//6 208//6 207//6
f 207//3 208//3 206//3 205//3
f 205//4 206//4 202//4 201//4
f 203//1 207//1 205//1 201//1
f 208//2 204//2 202//2 206//2
f 209//5 210//5 212//5 211//5
f 211//6 212//6 216//6 215//6
f 215//3 216//3 214//3 213//3
f 213//4 214//4 210//4 209//4
f 211//1 215//1 213//1 209//1
f 216//2 212//2 210//2 214//2
f 217//5 218//5 220//5 219//5
f 219//6 220//6 224//6 223//6
f 223//3 224//3 222//3 221//3
f 221//4 222//4 218//4 217//4
f 219//1 223//1 221//1 217//1
f 224//2 220//2 218//2 222//2
f 225//5 226//5 228//5 227//5
f 227//6 228//6 232//6 231//6
f 231//3 232//3 230//3 229//3
f 229//4 230//4 226//4 225//4
f 227//1 231//1 229//1 225//1
f 232//2 228//2 226//2 230//2
f 233//5 234//5 236//5 235//5
f 235//6 236//6 240//6 239//6
f 239//3 240//3 238//3 237//3
f 237//4 238//4 234//4 233//4
f 235//1 239//1 237//1 233//1
f 240//2 236//2 234//2 238//2
f 257//5 258//5 260//5 259//5
f 259//6 260//6 264//6 263//6
f 263//3 264//3 262//3 261//3
f 261//4 262//4 258//4 257//4
f 259//1 263//1 261//1 257//1
f 264//2 260//2 258//2 262//2
