# Blender v2.93.5 OBJ File: ''
# www.blender.org
mtllib house_orange.mtl
o Cube.001
v 1.000000 3.649058 -7.015328
v 1.000000 3.649056 2.786885
v -4.132371 3.649056 2.786885
v -4.132370 3.649058 -7.015329
v 1.000000 12.720647 -7.015327
v -4.132371 12.720647 -7.015327
v -4.132371 12.720646 2.786885
v 0.999999 12.720646 2.786886
v -4.140466 8.402999 0.096242
v -4.140466 13.054224 0.217568
v -4.140466 13.259075 -5.204724
v -4.140466 8.607850 -5.326048
v 0.997813 13.698357 -5.204724
v 0.997813 9.047132 -5.326048
v 0.997813 13.493505 0.217568
v 0.997813 8.842280 0.096242
v -4.136447 10.842493 2.748586
v -4.136447 12.626900 2.748586
v -4.136447 14.409001 -0.018977
v -4.136447 12.624594 -0.018977
v 1.010204 14.409001 -0.018977
v 1.010204 12.624594 -0.018977
v 1.010204 12.626900 2.748586
v 1.010204 10.842493 2.748586
v -4.119001 9.052870 0.082164
v -4.119001 14.131371 0.082165
v -4.119001 14.526056 -4.326664
v -4.119001 9.447555 -4.326665
v 0.991186 14.526056 -4.326664
v 0.991186 9.447555 -4.326665
v 0.991186 14.131371 0.082165
v 0.991186 9.052870 0.082164
v -4.143494 6.590169 4.563563
v -4.143494 8.590169 4.563563
v -4.143494 9.019557 2.563563
v -4.143494 7.019557 2.563563
v 0.969019 9.019557 2.563563
v 0.969019 7.019557 2.563563
v 0.969019 8.590169 4.563563
v 0.969019 6.590169 4.563563
v -4.121616 3.638466 6.233655
v -4.121616 7.724184 6.233656
v -4.121616 7.724185 2.788775
v -4.121616 3.638467 2.788774
v 1.010541 7.724185 2.788775
v 1.010541 3.638467 2.788774
v 1.010541 7.724184 6.233656
v 1.010541 3.638466 6.233655
v -4.217312 9.697042 0.068307
v -4.217312 11.697042 0.068307
v -4.217312 11.697042 -0.007688
v -4.217312 9.697042 -0.007688
v 1.113485 11.697042 -0.007688
v 1.113485 9.697042 -0.007688
v 1.113485 11.697042 0.068307
v 1.113485 9.697042 0.068307
v -4.224140 9.706361 -4.178349
v -4.224140 11.706361 -4.178348
v -4.224140 11.706361 -4.264553
v -4.224140 9.706361 -4.264554
v 1.092636 11.706361 -4.264553
v 1.092636 9.706361 -4.264554
v 1.092636 11.706361 -4.178348
v 1.092636 9.706361 -4.178349
v 2.138778 3.621623 6.229748
v 2.138778 7.407223 6.229749
v 2.138778 7.407223 5.544146
v 2.138778 3.621623 5.544145
v 2.903318 7.407223 5.544146
v 2.903318 3.621623 5.544145
v 2.903318 7.407223 6.229749
v 2.903318 3.621623 6.229748
v 2.018514 3.547909 0.815101
v 2.018514 7.614423 0.815101
v 2.018514 7.614423 0.122630
v 2.018514 3.547909 0.122630
v 2.941326 7.614423 0.122630
v 2.941326 3.547909 0.122630
v 2.941326 7.614423 0.815101
v 2.941326 3.547909 0.815101
v 1.028011 7.151486 6.478792
v 1.028011 7.467482 6.478793
v 1.028011 7.482521 -0.626229
v 1.028011 7.166526 -0.626229
v 2.923858 7.482521 -0.626229
v 2.923858 7.166526 -0.626229
v 2.923858 7.467482 6.478793
v 2.923858 7.151486 6.478792
v 0.916733 7.190893 3.930719
v 0.916733 9.190892 3.930719
v 0.916733 9.190893 1.930719
v 0.916733 7.190893 1.930719
v 2.934844 9.190893 1.930719
v 2.934844 7.190893 1.930719
v 2.934844 9.190892 3.930719
v 2.934844 7.190893 3.930719
v 0.899466 7.155975 2.243749
v 0.899466 8.567544 2.243749
v 0.899466 8.567544 0.917637
v 0.899466 7.155976 0.917637
v 2.927220 8.567544 0.931463
v 2.927220 7.155976 0.931463
v 2.927220 8.567544 2.257576
v 2.927220 7.155975 2.257575
v 0.945857 7.201472 5.220102
v 0.945857 8.285241 5.220102
v 0.945857 8.285241 3.443848
v 0.945857 7.201473 3.443848
v 2.938009 8.285241 3.443848
v 2.938009 7.201473 3.443848
v 2.938009 8.285241 5.220102
v 2.938009 7.201472 5.220102
v -0.315989 4.325000 4.267111
v -0.315989 5.701454 4.267112
v -0.315989 5.701454 4.231357
v -0.315989 4.325000 4.231357
v 1.086749 5.701454 4.231357
v 1.086749 4.325000 4.231357
v 1.086749 5.701454 4.267112
v 1.086749 4.325000 4.267111
v -0.463750 4.472025 -4.348236
v -0.463750 6.472472 -4.348236
v -0.463750 6.472472 -4.404189
v -0.463750 4.472026 -4.404189
v 1.047002 6.472472 -4.404189
v 1.047002 4.472026 -4.404189
v 1.047002 6.472472 -4.348236
v 1.047002 4.472025 -4.348236
v -5.066505 10.857804 4.139000
v -5.066505 12.196345 4.139000
v -5.066505 15.707582 -2.317173
v -5.066505 14.369042 -2.317174
v 1.603594 15.707582 -2.317173
v 1.603594 14.369042 -2.317174
v 1.603594 12.196345 4.139000
v 1.603594 10.857804 4.139000
v -5.063498 14.353804 -2.257567
v -5.063498 15.709499 -2.257566
v -5.063498 12.213979 -8.486182
v -5.063498 10.858283 -8.486182
v 1.604200 12.213979 -8.486182
v 1.604200 10.858283 -8.486182
v 1.604200 15.709499 -2.257566
v 1.604200 14.353804 -2.257567
v -5.048135 6.009503 7.540001
v -5.048135 7.045574 7.540001
v -5.127478 9.915654 2.861630
v -5.127478 8.879584 2.861629
v 3.056258 9.915654 2.861630
v 3.056258 8.879584 2.861629
v 3.135601 7.045574 7.540001
v 3.135601 6.009503 7.540001
v -5.090244 8.892407 2.871893
v -5.090244 9.947262 2.871894
v -5.090244 7.306329 -0.939256
v -5.090244 6.251475 -0.939256
v 3.094754 7.306329 -0.939256
v 3.094754 6.251475 -0.939256
v 3.094754 9.947262 2.871894
v 3.094754 8.892407 2.871893
v -4.180619 9.698278 0.766178
v -4.180619 11.698278 0.766178
v -4.180619 11.698278 -0.708243
v -4.180619 9.698278 -0.708243
v 1.070493 11.698278 -0.708243
v 1.070493 9.698278 -0.708243
v 1.070493 11.698278 0.766178
v 1.070493 9.698278 0.766178
v -4.207376 9.708470 -3.417041
v -4.207376 11.708470 -3.417041
v -4.207376 11.708470 -4.938754
v -4.207376 9.708470 -4.938755
v 1.065089 11.708470 -4.938754
v 1.065089 9.708470 -4.938755
v 1.065089 11.708470 -3.417041
v 1.065089 9.708470 -3.417041
v -0.825120 4.290445 4.574420
v -0.825120 5.704342 4.574421
v -0.825120 5.704342 3.893659
v -0.825120 4.290445 3.893659
v 1.074537 5.704342 3.893659
v 1.074537 4.290445 3.893659
v 1.074537 5.704342 4.574421
v 1.074537 4.290445 4.574420
v -0.989478 4.472456 -3.580308
v -0.989478 6.472456 -3.580308
v -0.989478 6.472457 -5.131201
v -0.989478 4.472457 -5.131201
v 1.010522 6.472457 -5.131201
v 1.010522 4.472457 -5.131201
v 1.010522 6.472456 -3.580308
v 1.010522 4.472456 -3.580308
v -0.902179 3.679058 2.818718
v -0.902179 5.679058 2.818718
v -0.902179 5.679058 1.529054
v -0.902179 3.679058 1.529054
v 1.097821 5.679058 1.529054
v 1.097821 3.679058 1.529054
v 1.097821 5.679058 2.818718
v 1.097821 3.679058 2.818718
v -0.831191 4.682212 2.750854
v -0.831191 4.811944 2.750854
v -0.831191 4.811944 2.638248
v -0.831191 4.682212 2.638248
v 1.168809 4.811944 2.638248
v 1.168809 4.682212 2.638248
v 1.168809 4.811944 2.750854
v 1.168809 4.682212 2.750854
v -7.935590 3.436720 9.841687
v -7.935590 3.655658 9.841687
v -7.935590 3.655662 -10.473557
v -7.935590 3.436724 -10.473557
v 5.930143 3.655662 -10.473557
v 5.930143 3.436724 -10.473557
v 5.930143 3.655658 9.841687
v 5.930143 3.436720 9.841687
v 5.364876 3.416891 0.366541
v 5.364876 5.617705 0.366541
v 5.364876 5.617707 -10.507631
v 5.364876 3.416893 -10.507631
v 6.041429 5.617707 -10.507631
v 6.041429 3.416893 -10.507631
v 6.041429 5.617705 0.366541
v 6.041429 3.416891 0.366541
v 5.247232 3.438338 9.883940
v 5.247232 5.640607 9.883940
v 5.247232 5.640608 4.326454
v 5.247232 3.438339 4.326454
v 5.954122 5.640608 4.326454
v 5.954122 3.438339 4.326454
v 5.954122 5.640607 9.883940
v 5.954122 3.438338 9.883940
v -7.950333 3.377541 -9.984317
v -7.950333 5.614396 -9.984317
v -7.950333 5.614396 -10.513797
v -7.950333 3.377541 -10.513797
v 5.928523 5.614396 -10.513797
v 5.928523 3.377541 -10.513797
v 5.928523 5.614396 -9.984317
v 5.928523 3.377541 -9.984317
v -7.948803 3.384570 9.884376
v -7.948803 5.641098 9.884376
v -7.948803 5.641098 9.335958
v -7.948803 3.384571 9.335958
v 5.933333 5.641098 9.335958
v 5.933333 3.384571 9.335958
v 5.933333 5.641098 9.884376
v 5.933333 3.384570 9.884376
v -7.953097 3.451650 9.882558
v -7.953097 5.635061 9.882558
v -7.953097 5.635064 -10.530524
v -7.953097 3.451654 -10.530524
v -7.322869 5.635064 -10.530524
v -7.322869 3.451654 -10.530524
v -7.322869 5.635061 9.882558
v -7.322869 3.451650 9.882558
v 1.254926 3.514909 2.952003
v 1.254926 3.689537 2.952004
v 1.254926 3.689537 1.508543
v 1.254926 3.514909 1.508543
v 5.924029 3.689537 1.508543
v 5.924029 3.514909 1.508543
v 5.924029 3.689537 2.952004
v 5.924029 3.514909 2.952003
vn 0.0000 -1.0000 -0.0000
vn -0.0000 1.0000 0.0000
vn 1.0000 0.0000 0.0000
vn -0.0000 -0.0000 1.0000
vn -1.0000 -0.0000 -0.0000
vn 0.0000 0.0000 -1.0000
vn -0.0022 0.0261 -0.9997
vn 0.0022 -0.0261 0.9997
vn 0.0851 -0.9957 -0.0376
vn -0.0851 0.9957 0.0376
vn 0.0000 -0.8408 -0.5414
vn 0.0000 0.8408 0.5414
vn 0.0000 -0.9960 -0.0892
vn 0.0000 0.9960 0.0892
vn 0.0000 -0.9777 -0.2099
vn 0.0000 0.9777 0.2099
vn 0.0000 -1.0000 -0.0021
vn 0.0000 1.0000 0.0021
vn 0.0068 0.0000 -1.0000
vn -0.0068 -0.0000 1.0000
vn 0.0000 -0.8785 -0.4778
vn 0.0000 0.8785 0.4778
vn 0.0000 -0.8721 0.4894
vn 0.0000 0.8721 -0.4894
vn -0.9999 -0.0000 0.0170
vn 0.9999 -0.0000 -0.0170
vn 0.0000 -0.8524 -0.5229
vn 0.0000 0.8524 0.5229
vn 0.0000 -0.8219 0.5696
vn 0.0000 0.8219 -0.5696
usemtl Material.001
s 1
f 1//1 2//1 3//1 4//1
f 5//2 6//2 7//2 8//2
f 1//3 5//3 8//3 2//3
f 2//4 8//4 7//4 3//4
f 3//5 7//5 6//5 4//5
f 5//6 1//6 4//6 6//6
f 9//5 10//5 11//5 12//5
f 12//7 11//7 13//7 14//7
f 14//3 13//3 15//3 16//3
f 16//8 15//8 10//8 9//8
f 12//9 14//9 16//9 9//9
f 13//10 11//10 10//10 15//10
f 17//5 18//5 19//5 20//5
f 20//6 19//6 21//6 22//6
f 22//3 21//3 23//3 24//3
f 24//4 23//4 18//4 17//4
f 20//11 22//11 24//11 17//11
f 21//12 19//12 18//12 23//12
f 25//5 26//5 27//5 28//5
f 28//6 27//6 29//6 30//6
f 30//3 29//3 31//3 32//3
f 32//4 31//4 26//4 25//4
f 28//13 30//13 32//13 25//13
f 29//14 27//14 26//14 31//14
f 33//5 34//5 35//5 36//5
f 36//6 35//6 37//6 38//6
f 38//3 37//3 39//3 40//3
f 40//4 39//4 34//4 33//4
f 36//15 38//15 40//15 33//15
f 37//16 35//16 34//16 39//16
f 41//5 42//5 43//5 44//5
f 44//6 43//6 45//6 46//6
f 46//3 45//3 47//3 48//3
f 48//4 47//4 42//4 41//4
f 44//1 46//1 48//1 41//1
f 45//2 43//2 42//2 47//2
f 49//5 50//5 51//5 52//5
f 52//6 51//6 53//6 54//6
f 54//3 53//3 55//3 56//3
f 56//4 55//4 50//4 49//4
f 52//1 54//1 56//1 49//1
f 53//2 51//2 50//2 55//2
f 57//5 58//5 59//5 60//5
f 60//6 59//6 61//6 62//6
f 62//3 61//3 63//3 64//3
f 64//4 63//4 58//4 57//4
f 60//1 62//1 64//1 57//1
f 61//2 59//2 58//2 63//2
f 65//5 66//5 67//5 68//5
f 68//6 67//6 69//6 70//6
f 70//3 69//3 71//3 72//3
f 72//4 71//4 66//4 65//4
f 68//1 70//1 72//1 65//1
f 69//2 67//2 66//2 71//2
f 73//5 74//5 75//5 76//5
f 76//6 75//6 77//6 78//6
f 78//3 77//3 79//3 80//3
f 80//4 79//4 74//4 73//4
f 76//1 78//1 80//1 73//1
f 77//2 75//2 74//2 79//2
f 81//5 82//5 83//5 84//5
f 84//6 83//6 85//6 86//6
f 86//3 85//3 87//3 88//3
f 88//4 87//4 82//4 81//4
f 84//17 86//17 88//17 81//17
f 85//18 83//18 82//18 87//18
f 89//5 90//5 91//5 92//5
f 92//6 91//6 93//6 94//6
f 94//3 93//3 95//3 96//3
f 96//4 95//4 90//4 89//4
f 92//1 94//1 96//1 89//1
f 93//2 91//2 90//2 95//2
f 97//5 98//5 99//5 100//5
f 100//19 99//19 101//19 102//19
f 102//3 101//3 103//3 104//3
f 104//20 103//20 98//20 97//20
f 100//1 102//1 104//1 97//1
f 101//2 99//2 98//2 103//2
f 105//5 106//5 107//5 108//5
f 108//6 107//6 109//6 110//6
f 110//3 109//3 111//3 112//3
f 112//4 111//4 106//4 105//4
f 108//1 110//1 112//1 105//1
f 109//2 107//2 106//2 111//2
f 113//5 114//5 115//5 116//5
f 116//6 115//6 117//6 118//6
f 118//3 117//3 119//3 120//3
f 120//4 119//4 114//4 113//4
f 116//1 118//1 120//1 113//1
f 117//2 115//2 114//2 119//2
f 121//5 122//5 123//5 124//5
f 124//6 123//6 125//6 126//6
f 126//3 125//3 127//3 128//3
f 128//4 127//4 122//4 121//4
f 124//1 126//1 128//1 121//1
f 125//2 123//2 122//2 127//2
usemtl Material.002
f 129//5 130//5 131//5 132//5
f 132//6 131//6 133//6 134//6
f 134//3 133//3 135//3 136//3
f 136//4 135//4 130//4 129//4
f 132//21 134//21 136//21 129//21
f 133//22 131//22 130//22 135//22
f 137//5 138//5 139//5 140//5
f 140//6 139//6 141//6 142//6
f 142//3 141//3 143//3 144//3
f 144//4 143//4 138//4 137//4
f 140//23 142//23 144//23 137//23
f 141//24 139//24 138//24 143//24
f 145//25 146//25 147//25 148//25
f 148//6 147//6 149//6 150//6
f 150//26 149//26 151//26 152//26
f 152//4 151//4 146//4 145//4
f 148//27 150//27 152//27 145//27
f 149//28 147//28 146//28 151//28
f 153//5 154//5 155//5 156//5
f 156//6 155//6 157//6 158//6
f 158//3 157//3 159//3 160//3
f 160//4 159//4 154//4 153//4
f 156//29 158//29 160//29 153//29
f 157//30 155//30 154//30 159//30
usemtl Material.003
f 161//5 162//5 163//5 164//5
f 164//6 163//6 165//6 166//6
f 166//3 165//3 167//3 168//3
f 168//4 167//4 162//4 161//4
f 164//1 166//1 168//1 161//1
f 165//2 163//2 162//2 167//2
f 169//5 170//5 171//5 172//5
f 172//6 171//6 173//6 174//6
f 174//3 173//3 175//3 176//3
f 176//4 175//4 170//4 169//4
f 172//1 174//1 176//1 169//1
f 173//2 171//2 170//2 175//2
f 177//5 178//5 179//5 180//5
f 180//6 179//6 181//6 182//6
f 182//3 181//3 183//3 184//3
f 184//4 183//4 178//4 177//4
f 180//1 182//1 184//1 177//1
f 181//2 179//2 178//2 183//2
f 185//5 186//5 187//5 188//5
f 188//6 187//6 189//6 190//6
f 190//3 189//3 191//3 192//3
f 192//4 191//4 186//4 185//4
f 188//1 190//1 192//1 185//1
f 189//2 187//2 186//2 191//2
usemtl Material.004
f 193//5 194//5 195//5 196//5
f 196//6 195//6 197//6 198//6
f 198//3 197//3 199//3 200//3
f 200//4 199//4 194//4 193//4
f 196//1 198//1 200//1 193//1
f 197//2 195//2 194//2 199//2
usemtl Material.005
f 201//5 202//5 203//5 204//5
f 204//6 203//6 205//6 206//6
f 206//3 205//3 207//3 208//3
f 208//4 207//4 202//4 201//4
f 204//1 206//1 208//1 201//1
f 205//2 203//2 202//2 207//2
usemtl Material.006
f 209//5 210//5 211//5 212//5
f 212//6 211//6 213//6 214//6
f 214//3 213//3 215//3 216//3
f 216//4 215//4 210//4 209//4
f 212//1 214//1 216//1 209//1
f 213//2 211//2 210//2 215//2
usemtl Material.007
f 217//5 218//5 219//5 220//5
f 220//6 219//6 221//6 222//6
f 222//3 221//3 223//3 224//3
f 224//4 223//4 218//4 217//4
f 220//1 222//1 224//1 217//1
f 221//2 219//2 218//2 223//2
f 225//5 226//5 227//5 228//5
f 228//6 227//6 229//6 230//6
f 230//3 229//3 231//3 232//3
f 232//4 231//4 226//4 225//4
f 228//1 230//1 232//1 225//1
f 229//2 227//2 226//2 231//2
f 233//5 234//5 235//5 236//5
f 236//6 235//6 237//6 238//6
f 238//3 237//3 239//3 240//3
f 240//4 239//4 234//4 233//4
f 236//1 238//1 240//1 233//1
f 237//2 235//2 234//2 239//2
f 241//5 242//5 243//5 244//5
f 244//6 243//6 245//6 246//6
f 246//3 245//3 247//3 248//3
f 248//4 247//4 242//4 241//4
f 244//1 246//1 248//1 241//1
f 245//2 243//2 242//2 247//2
f 249//5 250//5 251//5 252//5
f 252//6 251//6 253//6 254//6
f 254//3 253//3 255//3 256//3
f 256//4 255//4 250//4 249//4
f 252//1 254//1 256//1 249//1
f 253//2 251//2 250//2 255//2
f 257//5 258//5 259//5 260//5
f 260//6 259//6 261//6 262//6
f 262//3 261//3 263//3 264//3
f 264//4 263//4 258//4 257//4
f 260//1 262//1 264//1 257//1
f 261//2 259//2 258//2 263//2
