# Blender v2.90.1 OBJ File: 'sidou.blend'
# www.blender.org
mtllib sidou.mtl
o Cube
v 2.000000 0.500106 -2.000000
v 2.000000 -0.500106 -2.000000
v 2.000000 0.500106 2.000000
v 2.000000 -0.500106 2.000000
v -2.000000 0.500106 -2.000000
v -2.000000 -0.500106 -2.000000
v -2.000000 0.500106 2.000000
v -2.000000 -0.500106 2.000000
v -1.780884 -0.500106 -2.000000
v -1.780884 0.500106 2.000000
v -1.780884 -0.500106 2.000000
v -1.780884 0.500106 -2.000000
v -1.501941 -0.500106 2.000000
v -1.501941 0.500106 -2.000000
v -1.501941 -0.500106 -2.000000
v -1.501941 0.500106 2.000000
v 1.754272 -0.500106 2.000000
v 1.754272 0.500106 -2.000000
v 1.754272 -0.500106 -2.000000
v 1.754272 0.500106 2.000000
v 1.469980 -0.500106 -2.000000
v 1.469980 0.500106 2.000000
v 1.469980 -0.500106 2.000000
v 1.469980 0.500106 -2.000000
vt 0.875000 0.500000
vt 0.861305 0.750000
vt 0.861305 0.500000
vt 0.625000 0.986305
vt 0.375000 1.000000
vt 0.375000 0.986305
vt 0.625000 0.000000
vt 0.375000 0.250000
vt 0.375000 0.000000
vt 0.375000 0.500000
vt 0.359642 0.750000
vt 0.359642 0.500000
vt 0.625000 0.500000
vt 0.375000 0.750000
vt 0.625000 0.484642
vt 0.375000 0.484642
vt 0.625000 0.250000
vt 0.375000 0.263695
vt 0.138695 0.500000
vt 0.125000 0.750000
vt 0.125000 0.500000
vt 0.625000 0.968871
vt 0.375000 0.968871
vt 0.843871 0.500000
vt 0.658126 0.750000
vt 0.658126 0.500000
vt 0.625000 0.783126
vt 0.375000 0.783126
vt 0.625000 0.263695
vt 0.375000 0.281129
vt 0.156129 0.500000
vt 0.138695 0.750000
vt 0.625000 0.750000
vt 0.375000 0.765358
vt 0.640358 0.500000
vt 0.625000 0.466874
vt 0.375000 0.466874
vt 0.341874 0.750000
vt 0.341874 0.500000
vt 0.156129 0.750000
vt 0.625000 0.281129
vt 0.625000 0.765358
vt 0.875000 0.750000
vt 0.625000 1.000000
vt 0.843871 0.750000
vt 0.640358 0.750000
vn 0.0000 1.0000 0.0000
vn 0.0000 0.0000 1.0000
vn -1.0000 0.0000 0.0000
vn 0.0000 -1.0000 0.0000
vn 1.0000 0.0000 0.0000
vn 0.0000 0.0000 -1.0000
usemtl Material
s off
f 5/1/1 10/2/1 12/3/1
f 10/4/2 8/5/2 11/6/2
f 7/7/3 6/8/3 8/9/3
f 2/10/4 17/11/4 19/12/4
f 1/13/5 4/14/5 2/10/5
f 18/15/6 2/10/6 19/16/6
f 5/17/6 9/18/6 6/8/6
f 9/19/4 8/20/4 6/21/4
f 16/22/2 11/6/2 13/23/2
f 14/24/1 22/25/1 24/26/1
f 22/27/2 13/23/2 23/28/2
f 12/29/6 15/30/6 9/18/6
f 15/31/4 11/32/4 9/19/4
f 3/33/2 17/34/2 4/14/2
f 18/35/1 3/33/1 1/13/1
f 24/36/6 19/16/6 21/37/6
f 19/12/4 23/38/4 21/39/4
f 21/39/4 13/40/4 15/31/4
f 14/41/6 21/37/6 15/30/6
f 20/42/2 23/28/2 17/34/2
f 5/1/1 7/43/1 10/2/1
f 10/4/2 7/44/2 8/5/2
f 7/7/3 5/17/3 6/8/3
f 2/10/4 4/14/4 17/11/4
f 1/13/5 3/33/5 4/14/5
f 18/15/6 1/13/6 2/10/6
f 5/17/6 12/29/6 9/18/6
f 9/19/4 11/32/4 8/20/4
f 16/22/2 10/4/2 11/6/2
f 14/24/1 16/45/1 22/25/1
f 22/27/2 16/22/2 13/23/2
f 12/29/6 14/41/6 15/30/6
f 15/31/4 13/40/4 11/32/4
f 3/33/2 20/42/2 17/34/2
f 18/35/1 20/46/1 3/33/1
f 24/36/6 18/15/6 19/16/6
f 19/12/4 17/11/4 23/38/4
f 21/39/4 23/38/4 13/40/4
f 14/41/6 24/36/6 21/37/6
f 20/42/2 22/27/2 23/28/2
usemtl マテリアル
f 12/3/1 16/45/1 14/24/1
f 24/26/1 20/46/1 18/35/1
f 12/3/1 10/2/1 16/45/1
f 24/26/1 22/25/1 20/46/1
