# Blender v2.90.1 OBJ File: 'sidou_R.blend'
# www.blender.org
mtllib sidou_R.mtl
o Cube
v 3.608329 0.500106 -0.050947
v 3.608329 -0.500106 -0.050947
v 2.000000 0.500106 1.586119
v 2.000000 -0.500106 1.586119
v 3.622981 0.500106 -4.050920
v 3.622981 -0.500106 -4.050920
v -2.000000 0.500106 1.586119
v -2.000000 -0.500106 1.586119
v 3.622179 -0.500106 -3.831805
v -1.780884 0.500106 1.586119
v -1.780884 -0.500106 1.586119
v 3.622179 0.500106 -3.831805
v -1.501941 -0.500106 1.586119
v 3.621157 0.500106 -3.552864
v 3.621157 -0.500106 -3.552864
v -1.501941 0.500106 1.586119
v 1.754272 -0.500106 1.586119
v 3.609230 0.500106 -0.296673
v 3.609230 -0.500106 -0.296673
v 1.754272 0.500106 1.586119
v 3.610271 -0.500106 -0.580963
v 1.469980 0.500106 1.586119
v 1.469980 -0.500106 1.586119
v 3.610271 0.500106 -0.580963
v -2.000018 -0.500106 -0.029868
v 2.000000 0.500106 0.003084
v -2.000018 0.500106 -0.029868
v 2.000000 -0.500106 0.003084
v -1.780922 -0.500106 -0.023266
v -1.780922 0.500106 -0.023266
v -1.501992 0.500106 -0.015857
v -1.501992 -0.500106 -0.015857
v 1.754272 0.500106 0.003084
v 1.754272 -0.500106 0.003084
v 1.469980 -0.500106 0.003084
v 1.469980 0.500106 0.003084
v 1.919900 0.500106 -4.054837
v 2.054251 -0.500106 -0.057253
v 1.921324 0.500106 -3.835648
v 1.921324 -0.500106 -3.835648
v 2.054251 0.500106 -0.057253
v 1.919901 -0.500106 -4.054837
v 1.924131 0.500106 -3.556635
v 1.924131 -0.500106 -3.556635
v 2.039391 0.500106 -0.302521
v 2.039391 -0.500106 -0.302521
v 2.023276 -0.500106 -0.586345
v 2.023276 0.500106 -0.586345
v 1.391745 0.500106 -3.781452
v 0.874612 0.500106 -3.654097
v 0.379988 0.500106 -3.455992
v -0.082495 0.500106 -3.190923
v -0.503821 0.500106 -2.863984
v -0.875767 0.500106 -2.481470
v -1.191057 0.500106 -2.050767
v -1.443517 0.500106 -1.580202
v -1.628183 0.500106 -1.078884
v -1.741406 0.500106 -0.556528
v 1.391745 -0.500106 -3.781452
v 0.874612 -0.500106 -3.654097
v 0.379988 -0.500106 -3.455992
v -0.082495 -0.500106 -3.190923
v -0.503821 -0.500106 -2.863984
v -0.875767 -0.500106 -2.481470
v -1.191057 -0.500106 -2.050767
v -1.443517 -0.500106 -1.580202
v -1.628183 -0.500106 -1.078884
v -1.741406 -0.500106 -0.556528
v 2.048651 0.500106 -0.058226
v 2.042740 0.500106 -0.058346
v 2.036651 0.500106 -0.057549
v 2.030531 0.500106 -0.055788
v 2.024530 0.500106 -0.053042
v 2.018810 0.500106 -0.049312
v 2.013529 0.500106 -0.044628
v 2.008844 0.500106 -0.039042
v 2.004906 0.500106 -0.032633
v 2.001854 0.500106 -0.025505
v 1.359864 -0.500106 -3.998315
v 0.812893 -0.500106 -3.864422
v 0.289629 -0.500106 -3.655695
v -0.199739 -0.500106 -3.376126
v -0.645673 -0.500106 -3.031088
v -1.039472 -0.500106 -2.627232
v -1.373437 -0.500106 -2.172356
v -1.641029 -0.500106 -1.675256
v -1.836991 -0.500106 -1.145557
v -1.957456 -0.500106 -0.593524
v 1.433313 0.500106 -3.505538
v 0.954134 0.500106 -3.386641
v 0.495920 0.500106 -3.202188
v 0.067594 0.500106 -2.955701
v -0.322489 0.500106 -2.651910
v -0.666712 0.500106 -2.296664
v -0.958342 0.500106 -1.896819
v -1.191659 0.500106 -1.460101
v -1.362074 0.500106 -0.994962
v -1.466214 0.500106 -0.510414
v 1.433313 -0.500106 -3.505538
v 0.954134 -0.500106 -3.386641
v 0.495920 -0.500106 -3.202188
v 0.067594 -0.500106 -2.955701
v -0.322489 -0.500106 -2.651910
v -0.666712 -0.500106 -2.296664
v -0.958342 -0.500106 -1.896819
v -1.191659 -0.500106 -1.460101
v -1.362074 -0.500106 -0.994962
v -1.466214 -0.500106 -0.510414
v 1.999837 0.500106 -0.299046
v 1.960922 0.500106 -0.290042
v 1.923418 0.500106 -0.275620
v 1.888080 0.500106 -0.256000
v 1.855630 0.500106 -0.231506
v 1.826739 0.500106 -0.202564
v 1.802018 0.500106 -0.169690
v 1.782001 0.500106 -0.133485
v 1.767137 0.500106 -0.094624
v 1.757776 0.500106 -0.053839
v 1.999837 -0.500106 -0.299046
v 1.960922 -0.500106 -0.290042
v 1.923418 -0.500106 -0.275620
v 1.888080 -0.500106 -0.256000
v 1.855630 -0.500106 -0.231506
v 1.826739 -0.500106 -0.202564
v 1.802018 -0.500106 -0.169690
v 1.782001 -0.500106 -0.133485
v 1.767137 -0.500106 -0.094624
v 1.757776 -0.500106 -0.053839
v 1.944422 -0.500106 -0.577873
v 1.867282 -0.500106 -0.558458
v 1.793373 -0.500106 -0.528412
v 1.724155 -0.500106 -0.488259
v 1.661008 -0.500106 -0.438721
v 1.605201 -0.500106 -0.380710
v 1.557865 -0.500106 -0.315308
v 1.519975 -0.500106 -0.243748
v 1.492326 -0.500106 -0.167389
v 1.475518 -0.500106 -0.087694
v 1.944422 0.500106 -0.577873
v 1.867282 0.500106 -0.558458
v 1.793373 0.500106 -0.528412
v 1.724155 0.500106 -0.488259
v 1.661008 0.500106 -0.438721
v 1.605201 0.500106 -0.380710
v 1.557865 0.500106 -0.315308
v 1.519975 0.500106 -0.243748
v 1.492326 0.500106 -0.167389
v 1.475518 0.500106 -0.087694
v -1.957456 0.500106 -0.593524
v -1.836991 0.500106 -1.145557
v -1.641029 0.500106 -1.675256
v -1.373437 0.500106 -2.172356
v -1.039472 0.500106 -2.627232
v -0.645673 0.500106 -3.031088
v -0.199739 0.500106 -3.376126
v 0.289629 0.500106 -3.655695
v 0.812893 0.500106 -3.864422
v 1.359864 0.500106 -3.998315
v 2.001854 -0.500106 -0.025505
v 2.004906 -0.500106 -0.032633
v 2.008844 -0.500106 -0.039042
v 2.013529 -0.500106 -0.044628
v 2.018810 -0.500106 -0.049312
v 2.024530 -0.500106 -0.053042
v 2.030531 -0.500106 -0.055788
v 2.036651 -0.500106 -0.057549
v 2.042740 -0.500106 -0.058346
v 2.048651 -0.500106 -0.058226
vt 0.625000 1.000000
vt 0.375000 0.986305
vt 0.625000 0.986305
vt 0.625000 0.250000
vt 0.375000 0.172022
vt 0.625000 0.172022
vt 0.625000 0.783126
vt 0.375000 0.765358
vt 0.625000 0.765358
vt 0.625000 0.500000
vt 0.375000 0.484642
vt 0.625000 0.484642
vt 0.375000 0.674091
vt 0.359642 0.665353
vt 0.375000 0.665353
vt 0.875000 0.750000
vt 0.861305 0.674091
vt 0.875000 0.674091
vt 0.625000 0.263695
vt 0.375000 0.250000
vt 0.138695 0.674091
vt 0.125000 0.750000
vt 0.125000 0.674091
vt 0.375000 0.968871
vt 0.625000 0.968871
vt 0.843871 0.750000
vt 0.658126 0.674091
vt 0.843871 0.674091
vt 0.375000 0.783126
vt 0.625000 0.281129
vt 0.375000 0.263695
vt 0.156129 0.674091
vt 0.138695 0.750000
vt 0.375000 0.750000
vt 0.625000 0.750000
vt 0.640358 0.750000
vt 0.625000 0.674091
vt 0.640358 0.674091
vt 0.375000 0.466874
vt 0.625000 0.466874
vt 0.359642 0.750000
vt 0.341874 0.674091
vt 0.359642 0.674091
vt 0.156129 0.750000
vt 0.375000 0.281129
vt 0.843871 0.665353
vt 0.658126 0.665353
vt 0.138695 0.665353
vt 0.156129 0.665353
vt 0.640358 0.665353
vt 0.625000 0.665353
vt 0.341874 0.665353
vt 0.125000 0.665353
vt 0.875000 0.665353
vt 0.861305 0.665353
vt 0.625000 0.075909
vt 0.375000 0.000000
vt 0.625000 0.000000
vt 0.359642 0.577978
vt 0.341874 0.500000
vt 0.359642 0.500000
vt 0.875000 0.500000
vt 0.861305 0.577978
vt 0.861305 0.500000
vt 0.138695 0.577978
vt 0.125000 0.500000
vt 0.138695 0.500000
vt 0.625000 0.577978
vt 0.375000 0.500000
vt 0.341874 0.577978
vt 0.156129 0.500000
vt 0.640358 0.500000
vt 0.156129 0.577978
vt 0.843871 0.500000
vt 0.658126 0.577978
vt 0.658126 0.500000
vt 0.375000 0.577978
vt 0.375000 0.163284
vt 0.625000 0.163284
vt 0.625000 0.084647
vt 0.375000 0.075909
vt 0.625000 0.093384
vt 0.375000 0.084647
vt 0.625000 0.102122
vt 0.375000 0.093384
vt 0.625000 0.110859
vt 0.375000 0.102122
vt 0.625000 0.119597
vt 0.375000 0.110859
vt 0.625000 0.128334
vt 0.375000 0.119597
vt 0.625000 0.137072
vt 0.375000 0.128334
vt 0.625000 0.145809
vt 0.375000 0.137072
vt 0.625000 0.154547
vt 0.375000 0.145809
vt 0.375000 0.154547
vt 0.359642 0.586716
vt 0.359642 0.595453
vt 0.341874 0.586716
vt 0.359642 0.604191
vt 0.341874 0.595453
vt 0.359642 0.612928
vt 0.341874 0.604191
vt 0.359642 0.621666
vt 0.341874 0.612928
vt 0.359642 0.630403
vt 0.341874 0.621666
vt 0.359642 0.639141
vt 0.341874 0.630403
vt 0.359642 0.647878
vt 0.341874 0.639141
vt 0.359642 0.656616
vt 0.341874 0.647878
vt 0.341874 0.656616
vt 0.875000 0.577978
vt 0.861305 0.586716
vt 0.875000 0.586716
vt 0.861305 0.595453
vt 0.875000 0.595453
vt 0.861305 0.604191
vt 0.875000 0.604191
vt 0.861305 0.612928
vt 0.875000 0.612928
vt 0.861305 0.621666
vt 0.875000 0.621666
vt 0.861305 0.630403
vt 0.875000 0.630403
vt 0.861305 0.639141
vt 0.875000 0.639141
vt 0.861305 0.647878
vt 0.875000 0.647878
vt 0.861305 0.656616
vt 0.875000 0.656616
vt 0.138695 0.586716
vt 0.125000 0.577978
vt 0.138695 0.595453
vt 0.125000 0.586716
vt 0.138695 0.604191
vt 0.125000 0.595453
vt 0.138695 0.612928
vt 0.125000 0.604191
vt 0.138695 0.621666
vt 0.125000 0.612928
vt 0.138695 0.630403
vt 0.125000 0.621666
vt 0.138695 0.639141
vt 0.125000 0.630403
vt 0.138695 0.647878
vt 0.125000 0.639141
vt 0.138695 0.656616
vt 0.125000 0.647878
vt 0.125000 0.656616
vt 0.625000 0.586716
vt 0.625000 0.595453
vt 0.375000 0.586716
vt 0.625000 0.604191
vt 0.375000 0.595453
vt 0.625000 0.612928
vt 0.375000 0.604191
vt 0.625000 0.621666
vt 0.375000 0.612928
vt 0.625000 0.630403
vt 0.375000 0.621666
vt 0.625000 0.639141
vt 0.375000 0.630403
vt 0.625000 0.647878
vt 0.375000 0.639141
vt 0.625000 0.656616
vt 0.375000 0.647878
vt 0.375000 0.656616
vt 0.156129 0.586716
vt 0.156129 0.595453
vt 0.156129 0.604191
vt 0.156129 0.612928
vt 0.156129 0.621666
vt 0.156129 0.630403
vt 0.156129 0.639141
vt 0.156129 0.647878
vt 0.156129 0.656616
vt 0.640358 0.577978
vt 0.640358 0.586716
vt 0.640358 0.595453
vt 0.640358 0.604191
vt 0.640358 0.612928
vt 0.640358 0.621666
vt 0.640358 0.630403
vt 0.640358 0.639141
vt 0.640358 0.647878
vt 0.640358 0.656616
vt 0.843871 0.577978
vt 0.658126 0.586716
vt 0.843871 0.586716
vt 0.658126 0.595453
vt 0.843871 0.595453
vt 0.658126 0.604191
vt 0.843871 0.604191
vt 0.658126 0.612928
vt 0.843871 0.612928
vt 0.658126 0.621666
vt 0.843871 0.621666
vt 0.658126 0.630403
vt 0.843871 0.630403
vt 0.658126 0.639141
vt 0.843871 0.639141
vt 0.658126 0.647878
vt 0.843871 0.647878
vt 0.658126 0.656616
vt 0.843871 0.656616
vt 0.375000 1.000000
vt 0.861305 0.750000
vt 0.658126 0.750000
vt 0.341874 0.750000
vn 0.0000 0.0000 1.0000
vn 0.0023 0.0000 -1.0000
vn 1.0000 0.0000 0.0037
vn 0.0000 -1.0000 0.0000
vn 0.0000 1.0000 0.0000
vn 1.0000 0.0000 0.0000
vn 0.9979 0.0000 0.0647
vn -1.0000 0.0000 0.0000
vn -0.0041 0.0000 1.0000
vn -0.1004 0.0000 -0.9949
vn -0.9972 0.0000 -0.0753
vn -0.9770 0.0000 -0.2132
vn -0.9379 0.0000 -0.3470
vn -0.8805 0.0000 -0.4740
vn -0.8061 0.0000 -0.5918
vn -0.7160 0.0000 -0.6981
vn -0.6119 0.0000 -0.7909
vn -0.4960 0.0000 -0.8683
vn -0.3705 0.0000 -0.9288
vn -0.2378 -0.0000 -0.9713
vn -0.1711 0.0000 0.9853
vn -0.0204 -0.0000 0.9998
vn 0.1299 0.0000 0.9915
vn 0.2765 0.0000 0.9610
vn 0.4162 0.0000 0.9093
vn 0.5461 0.0000 0.8377
vn 0.6636 0.0000 0.7481
vn 0.7662 0.0000 0.6426
vn 0.8520 0.0000 0.5235
vn 0.9193 0.0000 0.3936
usemtl Material
s off
f 7/1/1 11/2/1 10/3/1
f 5/4/2 42/5/2 37/6/2
f 22/7/1 17/8/1 20/9/1
f 1/10/3 19/11/3 18/12/3
f 28/13/4 128/14/4 159/15/4
f 7/16/5 30/17/5 27/18/5
f 12/19/3 6/20/3 5/4/3
f 29/21/4 8/22/4 25/23/4
f 10/3/1 13/24/1 16/25/1
f 16/26/5 36/27/5 31/28/5
f 16/25/1 23/29/1 22/7/1
f 14/30/3 9/31/3 12/19/3
f 32/32/4 11/33/4 29/21/4
f 20/9/1 4/34/1 3/35/1
f 20/36/5 26/37/5 33/38/5
f 18/12/3 21/39/3 24/40/3
f 17/41/4 35/42/4 34/43/4
f 35/42/4 13/44/4 32/32/4
f 24/40/3 15/45/3 14/30/3
f 3/35/6 28/13/6 26/37/6
f 98/46/5 36/27/5 148/47/5
f 32/32/4 68/48/4 108/49/4
f 118/50/5 26/37/5 78/51/5
f 35/42/4 108/49/4 138/52/4
f 26/37/7 159/15/7 78/51/7
f 29/21/4 88/53/4 68/48/4
f 149/54/5 30/17/5 58/55/5
f 27/56/8 8/57/8 7/58/8
f 34/43/4 138/52/4 128/14/4
f 4/34/4 34/43/4 28/13/4
f 46/59/4 21/60/4 19/61/4
f 5/62/5 39/63/5 12/64/5
f 40/65/4 6/66/4 9/67/4
f 41/68/9 2/69/9 1/10/9
f 47/70/4 15/71/4 21/60/4
f 18/72/5 41/68/5 1/10/5
f 44/73/4 9/67/4 15/71/4
f 14/74/5 48/75/5 24/76/5
f 38/77/4 19/61/4 2/69/4
f 37/6/10 79/78/10 158/79/10
f 149/80/11 25/81/11 27/56/11
f 150/82/12 88/83/12 149/80/12
f 151/84/13 87/85/13 150/82/13
f 152/86/14 86/87/14 151/84/14
f 153/88/15 85/89/15 152/86/15
f 154/90/16 84/91/16 153/88/16
f 155/92/17 83/93/17 154/90/17
f 156/94/18 82/95/18 155/92/18
f 157/96/19 81/97/19 156/94/19
f 158/79/20 80/98/20 157/96/20
f 119/99/4 47/70/4 46/59/4
f 120/100/4 129/101/4 119/99/4
f 121/102/4 130/103/4 120/100/4
f 122/104/4 131/105/4 121/102/4
f 123/106/4 132/107/4 122/104/4
f 124/108/4 133/109/4 123/106/4
f 125/110/4 134/111/4 124/108/4
f 126/112/4 135/113/4 125/110/4
f 127/114/4 136/115/4 126/112/4
f 128/14/4 137/116/4 127/114/4
f 37/117/5 49/118/5 39/63/5
f 158/119/5 50/120/5 49/118/5
f 157/121/5 51/122/5 50/120/5
f 156/123/5 52/124/5 51/122/5
f 155/125/5 53/126/5 52/124/5
f 154/127/5 54/128/5 53/126/5
f 153/129/5 55/130/5 54/128/5
f 152/131/5 56/132/5 55/130/5
f 151/133/5 57/134/5 56/132/5
f 150/135/5 58/55/5 57/134/5
f 59/136/4 42/137/4 40/65/4
f 60/138/4 79/139/4 59/136/4
f 61/140/4 80/141/4 60/138/4
f 62/142/4 81/143/4 61/140/4
f 63/144/4 82/145/4 62/142/4
f 64/146/4 83/147/4 63/144/4
f 65/148/4 84/149/4 64/146/4
f 66/150/4 85/151/4 65/148/4
f 67/152/4 86/153/4 66/150/4
f 68/48/4 87/154/4 67/152/4
f 69/155/21 38/77/21 41/68/21
f 70/156/22 168/157/22 69/155/22
f 71/158/23 167/159/23 70/156/23
f 72/160/24 166/161/24 71/158/24
f 73/162/25 165/163/25 72/160/25
f 74/164/26 164/165/26 73/162/26
f 75/166/27 163/167/27 74/164/27
f 76/168/28 162/169/28 75/166/28
f 77/170/29 161/171/29 76/168/29
f 78/51/30 160/172/30 77/170/30
f 129/101/4 44/73/4 47/70/4
f 130/103/4 99/173/4 129/101/4
f 131/105/4 100/174/4 130/103/4
f 132/107/4 101/175/4 131/105/4
f 133/109/4 102/176/4 132/107/4
f 134/111/4 103/177/4 133/109/4
f 135/113/4 104/178/4 134/111/4
f 136/115/4 105/179/4 135/113/4
f 137/116/4 106/180/4 136/115/4
f 138/52/4 107/181/4 137/116/4
f 45/182/5 69/155/5 41/68/5
f 109/183/5 70/156/5 69/155/5
f 110/184/5 71/158/5 70/156/5
f 111/185/5 72/160/5 71/158/5
f 112/186/5 73/162/5 72/160/5
f 113/187/5 74/164/5 73/162/5
f 114/188/5 75/166/5 74/164/5
f 115/189/5 76/168/5 75/166/5
f 116/190/5 77/170/5 76/168/5
f 117/191/5 78/51/5 77/170/5
f 99/173/4 40/65/4 44/73/4
f 100/174/4 59/136/4 99/173/4
f 101/175/4 60/138/4 100/174/4
f 102/176/4 61/140/4 101/175/4
f 103/177/4 62/142/4 102/176/4
f 104/178/4 63/144/4 103/177/4
f 105/179/4 64/146/4 104/178/4
f 106/180/4 65/148/4 105/179/4
f 107/181/4 66/150/4 106/180/4
f 108/49/4 67/152/4 107/181/4
f 43/192/5 139/193/5 48/75/5
f 89/194/5 140/195/5 139/193/5
f 90/196/5 141/197/5 140/195/5
f 91/198/5 142/199/5 141/197/5
f 92/200/5 143/201/5 142/199/5
f 93/202/5 144/203/5 143/201/5
f 94/204/5 145/205/5 144/203/5
f 95/206/5 146/207/5 145/205/5
f 96/208/5 147/209/5 146/207/5
f 97/210/5 148/47/5 147/209/5
f 168/157/4 46/59/4 38/77/4
f 167/159/4 119/99/4 168/157/4
f 166/161/4 120/100/4 167/159/4
f 165/163/4 121/102/4 166/161/4
f 164/165/4 122/104/4 165/163/4
f 163/167/4 123/106/4 164/165/4
f 162/169/4 124/108/4 163/167/4
f 161/171/4 125/110/4 162/169/4
f 160/172/4 126/112/4 161/171/4
f 159/15/4 127/114/4 160/172/4
f 7/1/1 8/211/1 11/2/1
f 5/4/2 6/20/2 42/5/2
f 22/7/1 23/29/1 17/8/1
f 1/10/3 2/69/3 19/11/3
f 28/13/4 34/43/4 128/14/4
f 7/16/5 10/212/5 30/17/5
f 12/19/3 9/31/3 6/20/3
f 29/21/4 11/33/4 8/22/4
f 10/3/1 11/2/1 13/24/1
f 16/26/5 22/213/5 36/27/5
f 16/25/1 13/24/1 23/29/1
f 14/30/3 15/45/3 9/31/3
f 32/32/4 13/44/4 11/33/4
f 20/9/1 17/8/1 4/34/1
f 20/36/5 3/35/5 26/37/5
f 18/12/3 19/11/3 21/39/3
f 17/41/4 23/214/4 35/42/4
f 35/42/4 23/214/4 13/44/4
f 24/40/3 21/39/3 15/45/3
f 3/35/6 4/34/6 28/13/6
f 98/46/5 31/28/5 36/27/5
f 32/32/4 29/21/4 68/48/4
f 118/50/5 33/38/5 26/37/5
f 35/42/4 32/32/4 108/49/4
f 26/37/7 28/13/7 159/15/7
f 29/21/4 25/23/4 88/53/4
f 149/54/5 27/18/5 30/17/5
f 27/56/8 25/81/8 8/57/8
f 34/43/4 35/42/4 138/52/4
f 4/34/4 17/41/4 34/43/4
f 46/59/4 47/70/4 21/60/4
f 5/62/5 37/117/5 39/63/5
f 40/65/4 42/137/4 6/66/4
f 41/68/9 38/77/9 2/69/9
f 47/70/4 44/73/4 15/71/4
f 18/72/5 45/182/5 41/68/5
f 44/73/4 40/65/4 9/67/4
f 14/74/5 43/192/5 48/75/5
f 38/77/4 46/59/4 19/61/4
f 37/6/10 42/5/10 79/78/10
f 149/80/11 88/83/11 25/81/11
f 150/82/12 87/85/12 88/83/12
f 151/84/13 86/87/13 87/85/13
f 152/86/14 85/89/14 86/87/14
f 153/88/15 84/91/15 85/89/15
f 154/90/16 83/93/16 84/91/16
f 155/92/17 82/95/17 83/93/17
f 156/94/18 81/97/18 82/95/18
f 157/96/19 80/98/19 81/97/19
f 158/79/20 79/78/20 80/98/20
f 119/99/4 129/101/4 47/70/4
f 120/100/4 130/103/4 129/101/4
f 121/102/4 131/105/4 130/103/4
f 122/104/4 132/107/4 131/105/4
f 123/106/4 133/109/4 132/107/4
f 124/108/4 134/111/4 133/109/4
f 125/110/4 135/113/4 134/111/4
f 126/112/4 136/115/4 135/113/4
f 127/114/4 137/116/4 136/115/4
f 128/14/4 138/52/4 137/116/4
f 37/117/5 158/119/5 49/118/5
f 158/119/5 157/121/5 50/120/5
f 157/121/5 156/123/5 51/122/5
f 156/123/5 155/125/5 52/124/5
f 155/125/5 154/127/5 53/126/5
f 154/127/5 153/129/5 54/128/5
f 153/129/5 152/131/5 55/130/5
f 152/131/5 151/133/5 56/132/5
f 151/133/5 150/135/5 57/134/5
f 150/135/5 149/54/5 58/55/5
f 59/136/4 79/139/4 42/137/4
f 60/138/4 80/141/4 79/139/4
f 61/140/4 81/143/4 80/141/4
f 62/142/4 82/145/4 81/143/4
f 63/144/4 83/147/4 82/145/4
f 64/146/4 84/149/4 83/147/4
f 65/148/4 85/151/4 84/149/4
f 66/150/4 86/153/4 85/151/4
f 67/152/4 87/154/4 86/153/4
f 68/48/4 88/53/4 87/154/4
f 69/155/21 168/157/21 38/77/21
f 70/156/22 167/159/22 168/157/22
f 71/158/23 166/161/23 167/159/23
f 72/160/24 165/163/24 166/161/24
f 73/162/25 164/165/25 165/163/25
f 74/164/26 163/167/26 164/165/26
f 75/166/27 162/169/27 163/167/27
f 76/168/28 161/171/28 162/169/28
f 77/170/29 160/172/29 161/171/29
f 78/51/30 159/15/30 160/172/30
f 129/101/4 99/173/4 44/73/4
f 130/103/4 100/174/4 99/173/4
f 131/105/4 101/175/4 100/174/4
f 132/107/4 102/176/4 101/175/4
f 133/109/4 103/177/4 102/176/4
f 134/111/4 104/178/4 103/177/4
f 135/113/4 105/179/4 104/178/4
f 136/115/4 106/180/4 105/179/4
f 137/116/4 107/181/4 106/180/4
f 138/52/4 108/49/4 107/181/4
f 45/182/5 109/183/5 69/155/5
f 109/183/5 110/184/5 70/156/5
f 110/184/5 111/185/5 71/158/5
f 111/185/5 112/186/5 72/160/5
f 112/186/5 113/187/5 73/162/5
f 113/187/5 114/188/5 74/164/5
f 114/188/5 115/189/5 75/166/5
f 115/189/5 116/190/5 76/168/5
f 116/190/5 117/191/5 77/170/5
f 117/191/5 118/50/5 78/51/5
f 99/173/4 59/136/4 40/65/4
f 100/174/4 60/138/4 59/136/4
f 101/175/4 61/140/4 60/138/4
f 102/176/4 62/142/4 61/140/4
f 103/177/4 63/144/4 62/142/4
f 104/178/4 64/146/4 63/144/4
f 105/179/4 65/148/4 64/146/4
f 106/180/4 66/150/4 65/148/4
f 107/181/4 67/152/4 66/150/4
f 108/49/4 68/48/4 67/152/4
f 43/192/5 89/194/5 139/193/5
f 89/194/5 90/196/5 140/195/5
f 90/196/5 91/198/5 141/197/5
f 91/198/5 92/200/5 142/199/5
f 92/200/5 93/202/5 143/201/5
f 93/202/5 94/204/5 144/203/5
f 94/204/5 95/206/5 145/205/5
f 95/206/5 96/208/5 146/207/5
f 96/208/5 97/210/5 147/209/5
f 97/210/5 98/46/5 148/47/5
f 168/157/4 119/99/4 46/59/4
f 167/159/4 120/100/4 119/99/4
f 166/161/4 121/102/4 120/100/4
f 165/163/4 122/104/4 121/102/4
f 164/165/4 123/106/4 122/104/4
f 163/167/4 124/108/4 123/106/4
f 162/169/4 125/110/4 124/108/4
f 161/171/4 126/112/4 125/110/4
f 160/172/4 127/114/4 126/112/4
f 159/15/4 128/14/4 127/114/4
usemtl マテリアル
f 22/213/5 33/38/5 36/27/5
f 10/212/5 31/28/5 30/17/5
f 58/55/5 31/28/5 98/46/5
f 148/47/5 33/38/5 118/50/5
f 24/76/5 45/182/5 18/72/5
f 12/64/5 43/192/5 14/74/5
f 48/75/5 109/183/5 45/182/5
f 139/193/5 110/184/5 109/183/5
f 140/195/5 111/185/5 110/184/5
f 141/197/5 112/186/5 111/185/5
f 142/199/5 113/187/5 112/186/5
f 143/201/5 114/188/5 113/187/5
f 144/203/5 115/189/5 114/188/5
f 145/205/5 116/190/5 115/189/5
f 146/207/5 117/191/5 116/190/5
f 147/209/5 118/50/5 117/191/5
f 39/63/5 89/194/5 43/192/5
f 49/118/5 90/196/5 89/194/5
f 50/120/5 91/198/5 90/196/5
f 51/122/5 92/200/5 91/198/5
f 52/124/5 93/202/5 92/200/5
f 53/126/5 94/204/5 93/202/5
f 54/128/5 95/206/5 94/204/5
f 55/130/5 96/208/5 95/206/5
f 56/132/5 97/210/5 96/208/5
f 57/134/5 98/46/5 97/210/5
f 22/213/5 20/36/5 33/38/5
f 10/212/5 16/26/5 31/28/5
f 58/55/5 30/17/5 31/28/5
f 148/47/5 36/27/5 33/38/5
f 24/76/5 48/75/5 45/182/5
f 12/64/5 39/63/5 43/192/5
f 48/75/5 139/193/5 109/183/5
f 139/193/5 140/195/5 110/184/5
f 140/195/5 141/197/5 111/185/5
f 141/197/5 142/199/5 112/186/5
f 142/199/5 143/201/5 113/187/5
f 143/201/5 144/203/5 114/188/5
f 144/203/5 145/205/5 115/189/5
f 145/205/5 146/207/5 116/190/5
f 146/207/5 147/209/5 117/191/5
f 147/209/5 148/47/5 118/50/5
f 39/63/5 49/118/5 89/194/5
f 49/118/5 50/120/5 90/196/5
f 50/120/5 51/122/5 91/198/5
f 51/122/5 52/124/5 92/200/5
f 52/124/5 53/126/5 93/202/5
f 53/126/5 54/128/5 94/204/5
f 54/128/5 55/130/5 95/206/5
f 55/130/5 56/132/5 96/208/5
f 56/132/5 57/134/5 97/210/5
f 57/134/5 58/55/5 98/46/5
