# Blender v2.90.1 OBJ File: 'sidou_X.blend'
# www.blender.org
mtllib sidou_X.mtl
o Cube
v 2.000000 0.500106 -2.988684
v 2.000000 -0.500106 -2.988684
v 2.000000 0.500106 3.006649
v 2.000000 -0.500106 3.006649
v -2.000000 0.500106 -2.988684
v -2.000000 -0.500106 -2.988684
v -2.000000 0.500106 3.006649
v -2.000000 -0.500106 3.006649
v -1.780884 -0.500106 -2.988684
v -1.780884 0.500106 3.006649
v -1.780884 -0.500106 3.006649
v -1.780884 0.500106 -2.988684
v -1.501941 -0.500106 3.006649
v -1.501941 0.500106 -2.988684
v -1.501941 -0.500106 -2.988684
v -1.501941 0.500106 3.006649
v 1.754272 -0.500106 3.006649
v 1.754272 0.500106 -2.988684
v 1.754272 -0.500106 -2.988684
v 1.754272 0.500106 3.006649
v 1.469980 -0.500106 -2.988684
v 1.469980 0.500106 3.006649
v 1.469980 -0.500106 3.006649
v 1.469980 0.500106 -2.988684
v -2.000000 -0.500106 -1.483314
v 2.000000 0.500106 -1.483314
v -2.000000 0.500106 -1.483314
v 2.000000 -0.500106 -1.483314
v -1.780884 -0.500106 -1.483314
v -1.780884 0.500106 -1.483314
v -1.501941 0.500106 -1.483314
v -1.501941 -0.500106 -1.483314
v 1.754272 0.500106 -1.483314
v 1.754272 -0.500106 -1.483314
v 1.469980 -0.500106 -1.483314
v 1.469980 0.500106 -1.483314
v -2.000000 -0.500106 1.470667
v 2.000000 0.500106 1.470667
v -1.780884 -0.500106 1.470667
v -1.780884 0.500106 1.470667
v -1.501941 0.500106 1.470667
v -1.501941 -0.500106 1.470667
v 1.754272 0.500106 1.470667
v 1.754272 -0.500106 1.470667
v 1.469980 -0.500106 1.470667
v 1.469980 0.500106 1.470667
v -2.000000 0.500106 1.470667
v 2.000000 -0.500106 1.470667
v -2.000000 0.500106 -1.774644
v 2.000000 -0.500106 -1.774644
v -2.000000 -0.500106 -1.774644
v 2.000000 0.500106 -1.774644
v -1.780884 -0.500106 -1.774644
v -1.780884 0.500106 -1.774644
v -1.501941 0.500106 -1.774644
v -1.501941 -0.500106 -1.774644
v 1.754272 0.500106 -1.774644
v 1.754272 -0.500106 -1.774644
v 1.469980 -0.500106 -1.774644
v 1.469980 0.500106 -1.774644
v -2.000000 -0.500106 1.757358
v 2.000000 0.500106 1.757358
v -1.780884 -0.500106 1.757358
v -1.780884 0.500106 1.757358
v -1.501941 0.500106 1.757358
v -1.501941 -0.500106 1.757358
v 1.754272 0.500106 1.757358
v 1.754272 -0.500106 1.757358
v 1.469980 -0.500106 1.757358
v 1.469980 0.500106 1.757358
v -2.000000 0.500106 1.757358
v 2.000000 -0.500106 1.757358
vt 0.375000 0.199376
vt 0.625000 0.187227
vt 0.625000 0.199376
vt 0.375000 0.783126
vt 0.625000 0.765358
vt 0.625000 0.783126
vt 0.375000 0.500000
vt 0.625000 0.484642
vt 0.625000 0.500000
vt 0.125000 0.697906
vt 0.138695 0.685951
vt 0.138695 0.697906
vt 0.375000 0.986305
vt 0.625000 0.968871
vt 0.625000 0.986305
vt 0.640358 0.685951
vt 0.658126 0.562773
vt 0.658126 0.685951
vt 0.125000 0.685951
vt 0.138695 0.562773
vt 0.375000 0.968871
vt 0.375000 0.281129
vt 0.625000 0.263695
vt 0.625000 0.281129
vt 0.156129 0.685951
vt 0.156129 0.697906
vt 0.375000 0.765358
vt 0.625000 0.750000
vt 0.359642 0.697906
vt 0.375000 0.685951
vt 0.375000 0.697906
vt 0.375000 0.263695
vt 0.625000 0.250000
vt 0.375000 1.000000
vt 0.625000 1.000000
vt 0.375000 0.484642
vt 0.625000 0.466874
vt 0.341874 0.697906
vt 0.359642 0.685951
vt 0.341874 0.685951
vt 0.375000 0.466874
vt 0.375000 0.562773
vt 0.625000 0.685951
vt 0.625000 0.697906
vt 0.359642 0.550624
vt 0.375000 0.550624
vt 0.625000 0.550624
vt 0.156129 0.550624
vt 0.341874 0.500000
vt 0.341874 0.550624
vt 0.359642 0.500000
vt 0.640358 0.500000
vt 0.640358 0.550624
vt 0.138695 0.550624
vt 0.156129 0.500000
vt 0.658126 0.550624
vt 0.843871 0.500000
vt 0.843871 0.550624
vt 0.125000 0.550624
vt 0.138695 0.500000
vt 0.861305 0.550624
vt 0.875000 0.500000
vt 0.875000 0.550624
vt 0.375000 0.187227
vt 0.625000 0.064049
vt 0.861305 0.685951
vt 0.875000 0.562773
vt 0.875000 0.685951
vt 0.375000 0.052094
vt 0.625000 0.000000
vt 0.625000 0.052094
vt 0.625000 0.562773
vt 0.341874 0.562773
vt 0.359642 0.562773
vt 0.640358 0.562773
vt 0.156129 0.562773
vt 0.843871 0.562773
vt 0.843871 0.685951
vt 0.861305 0.562773
vt 0.875000 0.750000
vt 0.861305 0.697906
vt 0.875000 0.697906
vt 0.658126 0.697906
vt 0.843871 0.697906
vt 0.125000 0.562773
vt 0.375000 0.250000
vt 0.658126 0.750000
vt 0.843871 0.750000
vt 0.375000 0.064049
vt 0.375000 0.750000
vt 0.156129 0.750000
vt 0.341874 0.750000
vt 0.359642 0.750000
vt 0.138695 0.750000
vt 0.125000 0.750000
vt 0.640358 0.697906
vt 0.640358 0.750000
vt 0.658126 0.500000
vt 0.125000 0.500000
vt 0.861305 0.500000
vt 0.375000 0.000000
vt 0.861305 0.750000
vn -1.0000 0.0000 0.0000
vn 0.0000 0.0000 1.0000
vn 0.0000 0.0000 -1.0000
vn 0.0000 -1.0000 0.0000
vn 0.0000 1.0000 0.0000
vn 1.0000 0.0000 0.0000
usemtl Material
s off
f 51/1/1 27/2/1 49/3/1
f 23/4/2 20/5/2 22/6/2
f 2/7/3 18/8/3 1/9/3
f 61/10/4 39/11/4 63/12/4
f 11/13/2 16/14/2 10/15/2
f 43/16/5 36/17/5 46/18/5
f 37/19/4 29/20/4 39/11/4
f 13/21/2 22/6/2 16/14/2
f 15/22/3 12/23/3 14/24/3
f 63/12/4 42/25/4 66/26/4
f 17/27/2 3/28/2 20/5/2
f 68/29/4 48/30/4 72/31/4
f 9/32/3 5/33/3 12/23/3
f 8/34/2 10/15/2 7/35/2
f 19/36/3 24/37/3 18/8/3
f 69/38/4 44/39/4 68/29/4
f 66/26/4 45/40/4 69/38/4
f 21/41/3 14/24/3 24/37/3
f 44/39/4 28/42/4 48/30/4
f 72/31/6 38/43/6 62/44/6
f 58/45/4 2/7/4 50/46/4
f 50/46/6 1/9/6 52/47/6
f 56/48/4 21/49/4 59/50/4
f 59/50/4 19/51/4 58/45/4
f 52/47/5 18/52/5 57/53/5
f 53/54/4 15/55/4 56/48/4
f 60/56/5 14/57/5 55/58/5
f 51/59/4 9/60/4 53/54/4
f 54/61/5 5/62/5 49/63/5
f 25/64/1 47/65/1 27/2/1
f 40/66/5 27/67/5 47/68/5
f 61/69/1 7/70/1 71/71/1
f 48/30/6 26/72/6 38/43/6
f 42/25/4 35/73/4 45/40/4
f 45/40/4 34/74/4 44/39/4
f 38/43/5 33/75/5 43/16/5
f 39/11/4 32/76/4 42/25/4
f 46/18/5 31/77/5 41/78/5
f 41/78/5 30/79/5 40/66/5
f 7/80/5 64/81/5 71/82/5
f 70/83/5 41/78/5 65/84/5
f 25/85/4 53/54/4 29/20/4
f 36/17/5 55/58/5 31/77/5
f 29/20/4 56/48/4 32/76/4
f 35/73/4 58/45/4 34/74/4
f 32/76/4 59/50/4 35/73/4
f 28/42/6 52/47/6 26/72/6
f 34/74/4 50/46/4 28/42/4
f 6/86/1 49/3/1 5/33/1
f 22/87/5 65/84/5 16/88/5
f 37/89/1 71/71/1 47/65/1
f 4/90/6 62/44/6 3/28/6
f 13/91/4 69/38/4 23/92/4
f 23/92/4 68/29/4 17/93/4
f 17/93/4 72/31/4 4/90/4
f 11/94/4 66/26/4 13/91/4
f 8/95/4 63/12/4 11/94/4
f 3/28/5 67/96/5 20/97/5
f 51/1/1 25/64/1 27/2/1
f 23/4/2 17/27/2 20/5/2
f 2/7/3 19/36/3 18/8/3
f 61/10/4 37/19/4 39/11/4
f 11/13/2 13/21/2 16/14/2
f 43/16/5 33/75/5 36/17/5
f 37/19/4 25/85/4 29/20/4
f 13/21/2 23/4/2 22/6/2
f 15/22/3 9/32/3 12/23/3
f 63/12/4 39/11/4 42/25/4
f 17/27/2 4/90/2 3/28/2
f 68/29/4 44/39/4 48/30/4
f 9/32/3 6/86/3 5/33/3
f 8/34/2 11/13/2 10/15/2
f 19/36/3 21/41/3 24/37/3
f 69/38/4 45/40/4 44/39/4
f 66/26/4 42/25/4 45/40/4
f 21/41/3 15/22/3 14/24/3
f 44/39/4 34/74/4 28/42/4
f 72/31/6 48/30/6 38/43/6
f 58/45/4 19/51/4 2/7/4
f 50/46/6 2/7/6 1/9/6
f 56/48/4 15/55/4 21/49/4
f 59/50/4 21/49/4 19/51/4
f 52/47/5 1/9/5 18/52/5
f 53/54/4 9/60/4 15/55/4
f 60/56/5 24/98/5 14/57/5
f 51/59/4 6/99/4 9/60/4
f 54/61/5 12/100/5 5/62/5
f 25/64/1 37/89/1 47/65/1
f 40/66/5 30/79/5 27/67/5
f 61/69/1 8/101/1 7/70/1
f 48/30/6 28/42/6 26/72/6
f 42/25/4 32/76/4 35/73/4
f 45/40/4 35/73/4 34/74/4
f 38/43/5 26/72/5 33/75/5
f 39/11/4 29/20/4 32/76/4
f 46/18/5 36/17/5 31/77/5
f 41/78/5 31/77/5 30/79/5
f 7/80/5 10/102/5 64/81/5
f 70/83/5 46/18/5 41/78/5
f 25/85/4 51/59/4 53/54/4
f 36/17/5 60/56/5 55/58/5
f 29/20/4 53/54/4 56/48/4
f 35/73/4 59/50/4 58/45/4
f 32/76/4 56/48/4 59/50/4
f 28/42/6 50/46/6 52/47/6
f 34/74/4 58/45/4 50/46/4
f 6/86/1 51/1/1 49/3/1
f 22/87/5 70/83/5 65/84/5
f 37/89/1 61/69/1 71/71/1
f 4/90/6 72/31/6 62/44/6
f 13/91/4 66/26/4 69/38/4
f 23/92/4 69/38/4 68/29/4
f 17/93/4 68/29/4 72/31/4
f 11/94/4 63/12/4 66/26/4
f 8/95/4 61/10/4 63/12/4
f 3/28/5 62/44/5 67/96/5
usemtl マテリアル
f 67/96/5 46/18/5 70/83/5
f 62/44/5 43/16/5 67/96/5
f 55/58/5 12/100/5 54/61/5
f 57/53/5 24/98/5 60/56/5
f 65/84/5 40/66/5 64/81/5
f 33/75/5 60/56/5 36/17/5
f 30/79/5 49/63/5 27/67/5
f 31/77/5 54/61/5 30/79/5
f 26/72/5 57/53/5 33/75/5
f 16/88/5 64/81/5 10/102/5
f 47/68/5 64/81/5 40/66/5
f 20/97/5 70/83/5 22/87/5
f 67/96/5 43/16/5 46/18/5
f 62/44/5 38/43/5 43/16/5
f 55/58/5 14/57/5 12/100/5
f 57/53/5 18/52/5 24/98/5
f 65/84/5 41/78/5 40/66/5
f 33/75/5 57/53/5 60/56/5
f 30/79/5 54/61/5 49/63/5
f 31/77/5 55/58/5 54/61/5
f 26/72/5 52/47/5 57/53/5
f 16/88/5 65/84/5 64/81/5
f 47/68/5 71/82/5 64/81/5
f 20/97/5 67/96/5 70/83/5
o Cube.001_Cube.002
v 2.997667 0.487203 2.008982
v 2.997667 -0.513009 2.008982
v -2.997666 0.487203 2.008983
v -2.997666 -0.513009 2.008983
v 2.997666 0.487203 -1.991018
v 2.997666 -0.513009 -1.991018
v -2.997667 0.487203 -1.991017
v -2.997667 -0.513009 -1.991017
v 2.997666 -0.513009 -1.771901
v -2.997667 0.487203 -1.771901
v -2.997667 -0.513009 -1.771901
v 2.997666 0.487203 -1.771901
v -2.997667 -0.513009 -1.492958
v 2.997667 0.487203 -1.492958
v 2.997667 -0.513009 -1.492958
v -2.997667 0.487203 -1.492958
v -2.997666 -0.513009 1.763255
v 2.997667 0.487203 1.763254
v 2.997667 -0.513009 1.763254
v -2.997666 0.487203 1.763255
v 2.997667 -0.513009 1.478962
v -2.997667 0.487203 1.478963
v -2.997667 -0.513009 1.478963
v 2.997667 0.487203 1.478962
v 1.492297 -0.513009 -1.991017
v 1.492297 0.487203 2.008983
v 1.492297 0.487203 -1.991017
v 1.492297 -0.513009 2.008983
v 1.492297 -0.513009 -1.771901
v 1.492297 0.487203 -1.771901
v 1.492297 0.487203 -1.492958
v 1.492297 -0.513009 -1.492958
v 1.492297 0.487203 1.763254
v 1.492297 -0.513009 1.763254
v 1.492297 -0.513009 1.478962
v 1.492297 0.487203 1.478962
v -1.461684 -0.513009 -1.991017
v -1.461684 0.487203 2.008983
v -1.461684 -0.513009 -1.771901
v -1.461684 0.487203 -1.771901
v -1.461684 0.487203 -1.492958
v -1.461684 -0.513009 -1.492958
v -1.461684 0.487203 1.763255
v -1.461684 -0.513009 1.763255
v -1.461684 -0.513009 1.478963
v -1.461684 0.487203 1.478963
v -1.461684 0.487203 -1.991017
v -1.461684 -0.513009 2.008983
vt 0.375000 0.250000
vt 0.625000 0.187227
vt 0.625000 0.250000
vt 0.375000 0.783126
vt 0.625000 0.765358
vt 0.625000 0.783126
vt 0.375000 0.500000
vt 0.625000 0.484642
vt 0.625000 0.500000
vt 0.625000 0.750000
vt 0.640358 0.685951
vt 0.640358 0.750000
vt 0.125000 0.750000
vt 0.138695 0.685951
vt 0.138695 0.750000
vt 0.375000 0.986305
vt 0.625000 0.968871
vt 0.625000 0.986305
vt 0.658126 0.562773
vt 0.658126 0.685951
vt 0.125000 0.685951
vt 0.138695 0.562773
vt 0.375000 0.968871
vt 0.375000 0.281129
vt 0.625000 0.263695
vt 0.625000 0.281129
vt 0.156129 0.685951
vt 0.156129 0.750000
vt 0.375000 0.765358
vt 0.359642 0.750000
vt 0.375000 0.685951
vt 0.375000 0.750000
vt 0.375000 0.263695
vt 0.375000 1.000000
vt 0.625000 1.000000
vt 0.375000 0.484642
vt 0.625000 0.466874
vt 0.341874 0.750000
vt 0.359642 0.685951
vt 0.341874 0.685951
vt 0.375000 0.466874
vt 0.375000 0.562773
vt 0.625000 0.685951
vt 0.359642 0.562773
vt 0.625000 0.562773
vt 0.156129 0.562773
vt 0.341874 0.500000
vt 0.341874 0.562773
vt 0.359642 0.500000
vt 0.640358 0.500000
vt 0.640358 0.562773
vt 0.156129 0.500000
vt 0.843871 0.500000
vt 0.843871 0.562773
vt 0.125000 0.562773
vt 0.138695 0.500000
vt 0.861305 0.562773
vt 0.875000 0.500000
vt 0.875000 0.562773
vt 0.375000 0.187227
vt 0.625000 0.064049
vt 0.861305 0.685951
vt 0.875000 0.685951
vt 0.375000 0.064049
vt 0.625000 0.000000
vt 0.843871 0.685951
vt 0.861305 0.750000
vt 0.658126 0.750000
vt 0.843871 0.750000
vt 0.658126 0.500000
vt 0.125000 0.500000
vt 0.861305 0.500000
vt 0.375000 0.000000
vt 0.875000 0.750000
vn -0.0000 0.0000 -1.0000
vn -1.0000 0.0000 0.0000
vn 1.0000 0.0000 0.0000
vn 0.0000 1.0000 0.0000
vn 0.0000 -1.0000 0.0000
vn 0.0000 0.0000 1.0000
usemtl Material.002
s off
f 78/103/7 99/104/7 77/105/7
f 95/106/8 92/107/8 94/108/8
f 74/109/9 90/110/9 73/111/9
f 75/112/10 115/113/10 92/114/10
f 80/115/11 111/116/11 83/117/11
f 83/118/8 88/119/8 82/120/8
f 115/113/10 108/121/10 118/122/10
f 109/123/11 101/124/11 111/116/11
f 85/125/8 94/108/8 88/119/8
f 87/126/9 84/127/9 86/128/9
f 83/117/11 114/129/11 85/130/11
f 89/131/8 75/112/8 92/107/8
f 89/132/11 120/133/11 76/134/11
f 81/135/9 77/105/9 84/127/9
f 80/136/8 82/120/8 79/137/8
f 91/138/9 96/139/9 90/110/9
f 95/140/11 116/141/11 89/132/11
f 85/130/11 117/142/11 95/140/11
f 93/143/9 86/128/9 96/139/9
f 116/141/11 100/144/11 120/133/11
f 76/134/12 110/145/12 75/112/12
f 106/146/11 74/109/11 100/144/11
f 100/144/12 73/111/12 98/147/12
f 104/148/11 93/149/11 107/150/11
f 107/150/11 91/151/11 106/146/11
f 98/147/10 90/152/10 105/153/10
f 101/124/11 87/154/11 104/148/11
f 108/121/10 86/155/10 103/156/10
f 97/157/11 81/158/11 101/124/11
f 102/159/10 77/160/10 99/161/10
f 97/162/7 119/163/7 99/104/7
f 112/164/10 99/161/10 119/165/10
f 109/166/7 79/167/7 119/163/7
f 120/133/12 98/147/12 110/145/12
f 114/129/11 107/150/11 117/142/11
f 117/142/11 106/146/11 116/141/11
f 110/145/10 105/153/10 115/113/10
f 111/116/11 104/148/11 114/129/11
f 118/122/10 103/156/10 113/168/10
f 113/168/10 102/159/10 112/164/10
f 119/165/10 82/169/10 112/164/10
f 94/170/10 113/168/10 88/171/10
f 78/103/7 97/162/7 99/104/7
f 95/106/8 89/131/8 92/107/8
f 74/109/9 91/138/9 90/110/9
f 75/112/10 110/145/10 115/113/10
f 80/115/11 109/123/11 111/116/11
f 83/118/8 85/125/8 88/119/8
f 115/113/10 105/153/10 108/121/10
f 109/123/11 97/157/11 101/124/11
f 85/125/8 95/106/8 94/108/8
f 87/126/9 81/135/9 84/127/9
f 83/117/11 111/116/11 114/129/11
f 89/131/8 76/134/8 75/112/8
f 89/132/11 116/141/11 120/133/11
f 81/135/9 78/103/9 77/105/9
f 80/136/8 83/118/8 82/120/8
f 91/138/9 93/143/9 96/139/9
f 95/140/11 117/142/11 116/141/11
f 85/130/11 114/129/11 117/142/11
f 93/143/9 87/126/9 86/128/9
f 116/141/11 106/146/11 100/144/11
f 76/134/12 120/133/12 110/145/12
f 106/146/11 91/151/11 74/109/11
f 100/144/12 74/109/12 73/111/12
f 104/148/11 87/154/11 93/149/11
f 107/150/11 93/149/11 91/151/11
f 98/147/10 73/111/10 90/152/10
f 101/124/11 81/158/11 87/154/11
f 108/121/10 96/172/10 86/155/10
f 97/157/11 78/173/11 81/158/11
f 102/159/10 84/174/10 77/160/10
f 97/162/7 109/166/7 119/163/7
f 112/164/10 102/159/10 99/161/10
f 109/166/7 80/175/7 79/167/7
f 120/133/12 100/144/12 98/147/12
f 114/129/11 104/148/11 107/150/11
f 117/142/11 107/150/11 106/146/11
f 110/145/10 98/147/10 105/153/10
f 111/116/11 101/124/11 104/148/11
f 118/122/10 108/121/10 103/156/10
f 113/168/10 103/156/10 102/159/10
f 119/165/10 79/176/10 82/169/10
f 94/170/10 118/122/10 113/168/10
usemtl マテリアル.002
f 92/114/10 118/122/10 94/170/10
f 103/156/10 84/174/10 102/159/10
f 105/153/10 96/172/10 108/121/10
f 88/171/10 112/164/10 82/169/10
f 92/114/10 115/113/10 118/122/10
f 103/156/10 86/155/10 84/174/10
f 105/153/10 90/152/10 96/172/10
f 88/171/10 113/168/10 112/164/10
