# Blender v2.90.0 OBJ File: ''
# www.blender.org
mtllib zimen.mtl
o 立方体_立方体.002
v -1490.490723 -1.058922 -167.695587
v -1490.490723 -6.412115 -1027.746216
v -1490.490723 -6.412255 -167.695587
v -1490.490723 -1.058782 -1027.746216
v 10.429260 -6.412115 -1027.746216
v -279.740265 -1.058955 39.551971
v -279.658691 -6.412322 246.799591
v -279.740265 -6.412289 39.552002
v -279.658691 -1.058989 246.799591
v -1490.490723 -6.412321 240.026459
v -1490.490723 -6.412288 36.165405
v -1490.490723 -1.058988 240.026459
v 12.844971 -1.058907 -260.084259
v 10.429260 -1.058782 -1027.746216
v 12.844971 -6.412240 -260.084259
v -1490.490723 -1.058930 -116.348816
v -1490.490723 -6.412263 -116.348816
v -1490.490723 -1.058938 -65.002106
v -278.171722 -1.058924 -154.463196
v -1490.490723 -6.412271 -65.002106
v -278.171722 -6.412257 -154.463196
v -254.015778 -1.058910 -237.376648
v -254.015778 -6.412243 -237.376648
v -1490.490723 -1.058955 36.165436
vt 0.625000 0.075521
vt 0.375000 0.250000
vt 0.375000 0.075521
vt 0.625000 0.250000
vt 0.375000 0.500000
vt 0.625000 0.712240
vt 0.375000 0.750000
vt 0.375000 0.712240
vt 0.625000 0.750000
vt 0.375000 1.000000
vt 0.125000 0.750000
vt 0.125000 0.712240
vt 0.875000 0.750000
vt 0.875000 0.500000
vt 0.625000 0.674479
vt 0.625000 0.500000
vt 0.125000 0.500000
vt 0.375000 0.674479
vt 0.125000 0.674479
vt 0.625000 0.066010
vt 0.375000 0.066010
vt 0.625000 0.000000
vt 0.375000 0.037760
vt 0.375000 0.000000
vt 0.875000 0.693501
vt 0.625000 0.693501
vt 0.125000 0.693501
vt 0.375000 0.693501
vt 0.625000 0.683990
vt 0.375000 0.683990
vt 0.125000 0.683990
vt 0.875000 0.683990
vt 0.625000 0.037760
vt 0.375000 0.056499
vt 0.875000 0.674479
vt 0.625000 0.056499
vt 0.625000 1.000000
vt 0.875000 0.712240
vn -1.0000 0.0000 0.0000
vn 0.0000 0.0000 -1.0000
vn 1.0000 -0.0000 -0.0004
vn 1.0000 -0.0000 0.0081
vn -0.0056 0.0000 1.0000
vn 0.0000 -1.0000 -0.0000
vn 0.0000 1.0000 0.0000
vn 1.0000 0.0000 -0.0031
vn 0.9601 0.0000 0.2797
vn 0.0848 0.0000 0.9964
usemtl マテリアル.002
s 1
f 1/1/1 2/2/1 3/3/1
f 4/4/2 5/5/2 2/2/2
f 6/6/3 7/7/3 8/8/4
f 9/9/5 10/10/5 7/7/5
f 8/8/6 10/11/6 11/12/6
f 6/6/7 12/13/7 9/9/7
f 4/14/7 13/15/7 14/16/7
f 2/17/6 15/18/6 3/19/6
f 14/16/8 15/18/8 5/5/8
f 16/20/1 3/3/1 17/21/1
f 12/22/1 11/23/1 10/24/1
f 18/25/7 6/6/7 19/26/7
f 20/27/6 8/8/6 11/12/6
f 19/26/4 8/8/4 21/28/4
f 22/29/9 21/28/9 23/30/9
f 17/31/6 21/28/6 20/27/6
f 16/32/7 19/26/7 22/29/7
f 24/33/1 20/34/1 11/23/1
f 1/35/7 22/29/7 13/15/7
f 3/19/6 23/30/6 17/31/6
f 13/15/10 23/30/10 15/18/10
f 18/36/1 17/21/1 20/34/1
f 1/1/1 4/4/1 2/2/1
f 4/4/2 14/16/2 5/5/2
f 6/6/3 9/9/3 7/7/3
f 9/9/5 12/37/5 10/10/5
f 8/8/6 7/7/6 10/11/6
f 6/6/7 24/38/7 12/13/7
f 4/14/7 1/35/7 13/15/7
f 2/17/6 5/5/6 15/18/6
f 14/16/8 13/15/8 15/18/8
f 16/20/1 1/1/1 3/3/1
f 12/22/1 24/33/1 11/23/1
f 18/25/7 24/38/7 6/6/7
f 20/27/6 21/28/6 8/8/6
f 19/26/4 6/6/3 8/8/4
f 22/29/9 19/26/9 21/28/9
f 17/31/6 23/30/6 21/28/6
f 16/32/7 18/25/7 19/26/7
f 24/33/1 18/36/1 20/34/1
f 1/35/7 16/32/7 22/29/7
f 3/19/6 15/18/6 23/30/6
f 13/15/10 22/29/10 23/30/10
f 18/36/1 16/20/1 17/21/1
